%FSLAX45Y45*%
G04 Gerber Fmt 4.5, Leading zero omitted, Abs format (unit mm)*
G04 Created by KiCad (PCBNEW 5.0.2+dfsg1-1) date Wed 07 Jul 2021 08:36:00 PM EEST*
%MOMM*%
%LPD*%
G01*
G04 APERTURE LIST*
%ADD10C,0.150000*%
%ADD11C,0.200000*%
%ADD12C,0.300000*%
G04 APERTURE END LIST*
D10*
X10033000Y-15367000D02*
X10033000Y-4445000D01*
X17272000Y-15367000D02*
X10033000Y-15367000D01*
X17272000Y-4445000D02*
X17272000Y-15367000D01*
X10033000Y-4445000D02*
X17272000Y-4445000D01*
D11*
X13032790Y-12873200D02*
X13092790Y-12933200D01*
X13092790Y-12873200D02*
X13032790Y-12933200D01*
X13182790Y-12873200D02*
X13242790Y-12933200D01*
X13242790Y-12873200D02*
X13182790Y-12933200D01*
X10428450Y-12873200D02*
X10488450Y-12933200D01*
X10488450Y-12873200D02*
X10428450Y-12933200D01*
X10578450Y-12873200D02*
X10638450Y-12933200D01*
X10638450Y-12873200D02*
X10578450Y-12933200D01*
X14074527Y-12873200D02*
X14134527Y-12933200D01*
X14134527Y-12873200D02*
X14074527Y-12933200D01*
X14224527Y-12873200D02*
X14284527Y-12933200D01*
X14284527Y-12873200D02*
X14224527Y-12933200D01*
X11991054Y-12873200D02*
X12051054Y-12933200D01*
X12051054Y-12873200D02*
X11991054Y-12933200D01*
X12141054Y-12873200D02*
X12201054Y-12933200D01*
X12201054Y-12873200D02*
X12141054Y-12933200D01*
X15116263Y-12873200D02*
X15176263Y-12933200D01*
X15176263Y-12873200D02*
X15116263Y-12933200D01*
X15266263Y-12873200D02*
X15326263Y-12933200D01*
X15326263Y-12873200D02*
X15266263Y-12933200D01*
X12511922Y-12873200D02*
X12571922Y-12933200D01*
X12571922Y-12873200D02*
X12511922Y-12933200D01*
X12661922Y-12873200D02*
X12721922Y-12933200D01*
X12721922Y-12873200D02*
X12661922Y-12933200D01*
X14595395Y-12873200D02*
X14655395Y-12933200D01*
X14655395Y-12873200D02*
X14595395Y-12933200D01*
X14745395Y-12873200D02*
X14805395Y-12933200D01*
X14805395Y-12873200D02*
X14745395Y-12933200D01*
X15637131Y-12873200D02*
X15697131Y-12933200D01*
X15697131Y-12873200D02*
X15637131Y-12933200D01*
X15787131Y-12873200D02*
X15847131Y-12933200D01*
X15847131Y-12873200D02*
X15787131Y-12933200D01*
X10972521Y-6828000D02*
X11032521Y-6888000D01*
X11032521Y-6828000D02*
X10972521Y-6888000D01*
X11122521Y-6828000D02*
X11182521Y-6888000D01*
X11182521Y-6828000D02*
X11122521Y-6888000D01*
X16434000Y-14829000D02*
X16494000Y-14889000D01*
X16494000Y-14829000D02*
X16434000Y-14889000D01*
X16521868Y-14616868D02*
X16581868Y-14676868D01*
X16581868Y-14616868D02*
X16521868Y-14676868D01*
X16521868Y-15041132D02*
X16581868Y-15101132D01*
X16581868Y-15041132D02*
X16521868Y-15101132D01*
X16734000Y-14529000D02*
X16794000Y-14589000D01*
X16794000Y-14529000D02*
X16734000Y-14589000D01*
X16734000Y-15129000D02*
X16794000Y-15189000D01*
X16794000Y-15129000D02*
X16734000Y-15189000D01*
X16946132Y-14616868D02*
X17006132Y-14676868D01*
X17006132Y-14616868D02*
X16946132Y-14676868D01*
X16946132Y-15041132D02*
X17006132Y-15101132D01*
X17006132Y-15041132D02*
X16946132Y-15101132D01*
X17034000Y-14829000D02*
X17094000Y-14889000D01*
X17094000Y-14829000D02*
X17034000Y-14889000D01*
X10949318Y-12873200D02*
X11009318Y-12933200D01*
X11009318Y-12873200D02*
X10949318Y-12933200D01*
X11099318Y-12873200D02*
X11159318Y-12933200D01*
X11159318Y-12873200D02*
X11099318Y-12933200D01*
X16434000Y-4923000D02*
X16494000Y-4983000D01*
X16494000Y-4923000D02*
X16434000Y-4983000D01*
X16521868Y-4710868D02*
X16581868Y-4770868D01*
X16581868Y-4710868D02*
X16521868Y-4770868D01*
X16521868Y-5135132D02*
X16581868Y-5195132D01*
X16581868Y-5135132D02*
X16521868Y-5195132D01*
X16734000Y-4623000D02*
X16794000Y-4683000D01*
X16794000Y-4623000D02*
X16734000Y-4683000D01*
X16734000Y-5223000D02*
X16794000Y-5283000D01*
X16794000Y-5223000D02*
X16734000Y-5283000D01*
X16946132Y-4710868D02*
X17006132Y-4770868D01*
X17006132Y-4710868D02*
X16946132Y-4770868D01*
X16946132Y-5135132D02*
X17006132Y-5195132D01*
X17006132Y-5135132D02*
X16946132Y-5195132D01*
X17034000Y-4923000D02*
X17094000Y-4983000D01*
X17094000Y-4923000D02*
X17034000Y-4983000D01*
X10211000Y-14829000D02*
X10271000Y-14889000D01*
X10271000Y-14829000D02*
X10211000Y-14889000D01*
X10298868Y-14616868D02*
X10358868Y-14676868D01*
X10358868Y-14616868D02*
X10298868Y-14676868D01*
X10298868Y-15041132D02*
X10358868Y-15101132D01*
X10358868Y-15041132D02*
X10298868Y-15101132D01*
X10511000Y-14529000D02*
X10571000Y-14589000D01*
X10571000Y-14529000D02*
X10511000Y-14589000D01*
X10511000Y-15129000D02*
X10571000Y-15189000D01*
X10571000Y-15129000D02*
X10511000Y-15189000D01*
X10723132Y-14616868D02*
X10783132Y-14676868D01*
X10783132Y-14616868D02*
X10723132Y-14676868D01*
X10723132Y-15041132D02*
X10783132Y-15101132D01*
X10783132Y-15041132D02*
X10723132Y-15101132D01*
X10811000Y-14829000D02*
X10871000Y-14889000D01*
X10871000Y-14829000D02*
X10811000Y-14889000D01*
X11470186Y-12873200D02*
X11530186Y-12933200D01*
X11530186Y-12873200D02*
X11470186Y-12933200D01*
X11620186Y-12873200D02*
X11680186Y-12933200D01*
X11680186Y-12873200D02*
X11620186Y-12933200D01*
X13553659Y-12873200D02*
X13613659Y-12933200D01*
X13613659Y-12873200D02*
X13553659Y-12933200D01*
X13703659Y-12873200D02*
X13763659Y-12933200D01*
X13763659Y-12873200D02*
X13703659Y-12933200D01*
X10211000Y-4923000D02*
X10271000Y-4983000D01*
X10271000Y-4923000D02*
X10211000Y-4983000D01*
X10298868Y-4710868D02*
X10358868Y-4770868D01*
X10358868Y-4710868D02*
X10298868Y-4770868D01*
X10298868Y-5135132D02*
X10358868Y-5195132D01*
X10358868Y-5135132D02*
X10298868Y-5195132D01*
X10511000Y-4623000D02*
X10571000Y-4683000D01*
X10571000Y-4623000D02*
X10511000Y-4683000D01*
X10511000Y-5223000D02*
X10571000Y-5283000D01*
X10571000Y-5223000D02*
X10511000Y-5283000D01*
X10723132Y-4710868D02*
X10783132Y-4770868D01*
X10783132Y-4710868D02*
X10723132Y-4770868D01*
X10723132Y-5135132D02*
X10783132Y-5195132D01*
X10783132Y-5135132D02*
X10723132Y-5195132D01*
X10811000Y-4923000D02*
X10871000Y-4983000D01*
X10871000Y-4923000D02*
X10811000Y-4983000D01*
X16158000Y-12873200D02*
X16218000Y-12933200D01*
X16218000Y-12873200D02*
X16158000Y-12933200D01*
X16308000Y-12873200D02*
X16368000Y-12933200D01*
X16368000Y-12873200D02*
X16308000Y-12933200D01*
X11504000Y-6828000D02*
X11564000Y-6888000D01*
X11564000Y-6828000D02*
X11504000Y-6888000D01*
X11654000Y-6828000D02*
X11714000Y-6888000D01*
X11714000Y-6828000D02*
X11654000Y-6888000D01*
X12012000Y-6828000D02*
X12072000Y-6888000D01*
X12072000Y-6828000D02*
X12012000Y-6888000D01*
X12162000Y-6828000D02*
X12222000Y-6888000D01*
X12222000Y-6828000D02*
X12162000Y-6888000D01*
X15086678Y-7464798D02*
G75*
G03X15086678Y-7464798I-40000J0D01*
G01*
X15086678Y-8226798D02*
G75*
G03X15086678Y-8226798I-40000J0D01*
G01*
X12879700Y-6559550D02*
G75*
G03X12879700Y-6559550I-40000J0D01*
G01*
X13641700Y-6559550D02*
G75*
G03X13641700Y-6559550I-40000J0D01*
G01*
X13927450Y-6559550D02*
G75*
G03X13927450Y-6559550I-40000J0D01*
G01*
X14689450Y-6559550D02*
G75*
G03X14689450Y-6559550I-40000J0D01*
G01*
X12221840Y-8556998D02*
G75*
G03X12221840Y-8556998I-40000J0D01*
G01*
X12221840Y-9318998D02*
G75*
G03X12221840Y-9318998I-40000J0D01*
G01*
X14012540Y-8556998D02*
G75*
G03X14012540Y-8556998I-40000J0D01*
G01*
X14012540Y-9318998D02*
G75*
G03X14012540Y-9318998I-40000J0D01*
G01*
X12270100Y-10572750D02*
G75*
G03X12270100Y-10572750I-40000J0D01*
G01*
X12270100Y-10826750D02*
G75*
G03X12270100Y-10826750I-40000J0D01*
G01*
X12270100Y-11080750D02*
G75*
G03X12270100Y-11080750I-40000J0D01*
G01*
X12270100Y-11334750D02*
G75*
G03X12270100Y-11334750I-40000J0D01*
G01*
X12270100Y-11588750D02*
G75*
G03X12270100Y-11588750I-40000J0D01*
G01*
X12270100Y-11842750D02*
G75*
G03X12270100Y-11842750I-40000J0D01*
G01*
X12270100Y-12096750D02*
G75*
G03X12270100Y-12096750I-40000J0D01*
G01*
X13032100Y-10572750D02*
G75*
G03X13032100Y-10572750I-40000J0D01*
G01*
X13032100Y-10826750D02*
G75*
G03X13032100Y-10826750I-40000J0D01*
G01*
X13032100Y-11080750D02*
G75*
G03X13032100Y-11080750I-40000J0D01*
G01*
X13032100Y-11334750D02*
G75*
G03X13032100Y-11334750I-40000J0D01*
G01*
X13032100Y-11588750D02*
G75*
G03X13032100Y-11588750I-40000J0D01*
G01*
X13032100Y-11842750D02*
G75*
G03X13032100Y-11842750I-40000J0D01*
G01*
X13032100Y-12096750D02*
G75*
G03X13032100Y-12096750I-40000J0D01*
G01*
X10936600Y-9855200D02*
G75*
G03X10936600Y-9855200I-40000J0D01*
G01*
X10936600Y-10109200D02*
G75*
G03X10936600Y-10109200I-40000J0D01*
G01*
X10936600Y-10363200D02*
G75*
G03X10936600Y-10363200I-40000J0D01*
G01*
X10936600Y-10617200D02*
G75*
G03X10936600Y-10617200I-40000J0D01*
G01*
X10936600Y-10871200D02*
G75*
G03X10936600Y-10871200I-40000J0D01*
G01*
X10936600Y-11125200D02*
G75*
G03X10936600Y-11125200I-40000J0D01*
G01*
X10936600Y-11379200D02*
G75*
G03X10936600Y-11379200I-40000J0D01*
G01*
X10936600Y-11633200D02*
G75*
G03X10936600Y-11633200I-40000J0D01*
G01*
X10936600Y-11887200D02*
G75*
G03X10936600Y-11887200I-40000J0D01*
G01*
X10936600Y-12141200D02*
G75*
G03X10936600Y-12141200I-40000J0D01*
G01*
X11698600Y-9855200D02*
G75*
G03X11698600Y-9855200I-40000J0D01*
G01*
X11698600Y-10109200D02*
G75*
G03X11698600Y-10109200I-40000J0D01*
G01*
X11698600Y-10363200D02*
G75*
G03X11698600Y-10363200I-40000J0D01*
G01*
X11698600Y-10617200D02*
G75*
G03X11698600Y-10617200I-40000J0D01*
G01*
X11698600Y-10871200D02*
G75*
G03X11698600Y-10871200I-40000J0D01*
G01*
X11698600Y-11125200D02*
G75*
G03X11698600Y-11125200I-40000J0D01*
G01*
X11698600Y-11379200D02*
G75*
G03X11698600Y-11379200I-40000J0D01*
G01*
X11698600Y-11633200D02*
G75*
G03X11698600Y-11633200I-40000J0D01*
G01*
X11698600Y-11887200D02*
G75*
G03X11698600Y-11887200I-40000J0D01*
G01*
X11698600Y-12141200D02*
G75*
G03X11698600Y-12141200I-40000J0D01*
G01*
X13294567Y-7464798D02*
G75*
G03X13294567Y-7464798I-40000J0D01*
G01*
X13294567Y-8226798D02*
G75*
G03X13294567Y-8226798I-40000J0D01*
G01*
X15445100Y-8556998D02*
G75*
G03X15445100Y-8556998I-40000J0D01*
G01*
X15445100Y-9318998D02*
G75*
G03X15445100Y-9318998I-40000J0D01*
G01*
X14370680Y-8556998D02*
G75*
G03X14370680Y-8556998I-40000J0D01*
G01*
X14370680Y-9318998D02*
G75*
G03X14370680Y-9318998I-40000J0D01*
G01*
X13654400Y-8556998D02*
G75*
G03X13654400Y-8556998I-40000J0D01*
G01*
X13654400Y-9318998D02*
G75*
G03X13654400Y-9318998I-40000J0D01*
G01*
X11220000Y-9525000D02*
G75*
G03X11220000Y-9525000I-40000J0D01*
G01*
X11470000Y-9525000D02*
G75*
G03X11470000Y-9525000I-40000J0D01*
G01*
X12938120Y-8556998D02*
G75*
G03X12938120Y-8556998I-40000J0D01*
G01*
X12938120Y-9318998D02*
G75*
G03X12938120Y-9318998I-40000J0D01*
G01*
X15086960Y-8556998D02*
G75*
G03X15086960Y-8556998I-40000J0D01*
G01*
X15086960Y-9318998D02*
G75*
G03X15086960Y-9318998I-40000J0D01*
G01*
X14728820Y-8556998D02*
G75*
G03X14728820Y-8556998I-40000J0D01*
G01*
X14728820Y-9318998D02*
G75*
G03X14728820Y-9318998I-40000J0D01*
G01*
X14011411Y-7464798D02*
G75*
G03X14011411Y-7464798I-40000J0D01*
G01*
X14011411Y-8226798D02*
G75*
G03X14011411Y-8226798I-40000J0D01*
G01*
X13652989Y-7464798D02*
G75*
G03X13652989Y-7464798I-40000J0D01*
G01*
X13652989Y-8226798D02*
G75*
G03X13652989Y-8226798I-40000J0D01*
G01*
X15795620Y-8562340D02*
G75*
G03X15795620Y-8562340I-40000J0D01*
G01*
X15795620Y-9324340D02*
G75*
G03X15795620Y-9324340I-40000J0D01*
G01*
X12936144Y-7464798D02*
G75*
G03X12936144Y-7464798I-40000J0D01*
G01*
X12936144Y-8226798D02*
G75*
G03X12936144Y-8226798I-40000J0D01*
G01*
X16151220Y-7470140D02*
G75*
G03X16151220Y-7470140I-40000J0D01*
G01*
X16151220Y-8232140D02*
G75*
G03X16151220Y-8232140I-40000J0D01*
G01*
X12577722Y-7464798D02*
G75*
G03X12577722Y-7464798I-40000J0D01*
G01*
X12577722Y-8226798D02*
G75*
G03X12577722Y-8226798I-40000J0D01*
G01*
X13736950Y-10572750D02*
G75*
G03X13736950Y-10572750I-40000J0D01*
G01*
X13736950Y-10826750D02*
G75*
G03X13736950Y-10826750I-40000J0D01*
G01*
X13736950Y-11080750D02*
G75*
G03X13736950Y-11080750I-40000J0D01*
G01*
X13736950Y-11334750D02*
G75*
G03X13736950Y-11334750I-40000J0D01*
G01*
X13736950Y-11588750D02*
G75*
G03X13736950Y-11588750I-40000J0D01*
G01*
X13736950Y-11842750D02*
G75*
G03X13736950Y-11842750I-40000J0D01*
G01*
X13736950Y-12096750D02*
G75*
G03X13736950Y-12096750I-40000J0D01*
G01*
X14498950Y-10572750D02*
G75*
G03X14498950Y-10572750I-40000J0D01*
G01*
X14498950Y-10826750D02*
G75*
G03X14498950Y-10826750I-40000J0D01*
G01*
X14498950Y-11080750D02*
G75*
G03X14498950Y-11080750I-40000J0D01*
G01*
X14498950Y-11334750D02*
G75*
G03X14498950Y-11334750I-40000J0D01*
G01*
X14498950Y-11588750D02*
G75*
G03X14498950Y-11588750I-40000J0D01*
G01*
X14498950Y-11842750D02*
G75*
G03X14498950Y-11842750I-40000J0D01*
G01*
X14498950Y-12096750D02*
G75*
G03X14498950Y-12096750I-40000J0D01*
G01*
X15203800Y-10572750D02*
G75*
G03X15203800Y-10572750I-40000J0D01*
G01*
X15203800Y-10826750D02*
G75*
G03X15203800Y-10826750I-40000J0D01*
G01*
X15203800Y-11080750D02*
G75*
G03X15203800Y-11080750I-40000J0D01*
G01*
X15203800Y-11334750D02*
G75*
G03X15203800Y-11334750I-40000J0D01*
G01*
X15203800Y-11588750D02*
G75*
G03X15203800Y-11588750I-40000J0D01*
G01*
X15203800Y-11842750D02*
G75*
G03X15203800Y-11842750I-40000J0D01*
G01*
X15203800Y-12096750D02*
G75*
G03X15203800Y-12096750I-40000J0D01*
G01*
X15965800Y-10572750D02*
G75*
G03X15965800Y-10572750I-40000J0D01*
G01*
X15965800Y-10826750D02*
G75*
G03X15965800Y-10826750I-40000J0D01*
G01*
X15965800Y-11080750D02*
G75*
G03X15965800Y-11080750I-40000J0D01*
G01*
X15965800Y-11334750D02*
G75*
G03X15965800Y-11334750I-40000J0D01*
G01*
X15965800Y-11588750D02*
G75*
G03X15965800Y-11588750I-40000J0D01*
G01*
X15965800Y-11842750D02*
G75*
G03X15965800Y-11842750I-40000J0D01*
G01*
X15965800Y-12096750D02*
G75*
G03X15965800Y-12096750I-40000J0D01*
G01*
X12219300Y-7464798D02*
G75*
G03X12219300Y-7464798I-40000J0D01*
G01*
X12219300Y-8226798D02*
G75*
G03X12219300Y-8226798I-40000J0D01*
G01*
X14728255Y-7464798D02*
G75*
G03X14728255Y-7464798I-40000J0D01*
G01*
X14728255Y-8226798D02*
G75*
G03X14728255Y-8226798I-40000J0D01*
G01*
X14369833Y-7464798D02*
G75*
G03X14369833Y-7464798I-40000J0D01*
G01*
X14369833Y-8226798D02*
G75*
G03X14369833Y-8226798I-40000J0D01*
G01*
X15445100Y-7464798D02*
G75*
G03X15445100Y-7464798I-40000J0D01*
G01*
X15445100Y-8226798D02*
G75*
G03X15445100Y-8226798I-40000J0D01*
G01*
X12579980Y-8556998D02*
G75*
G03X12579980Y-8556998I-40000J0D01*
G01*
X12579980Y-9318998D02*
G75*
G03X12579980Y-9318998I-40000J0D01*
G01*
X13296260Y-8556998D02*
G75*
G03X13296260Y-8556998I-40000J0D01*
G01*
X13296260Y-9318998D02*
G75*
G03X13296260Y-9318998I-40000J0D01*
G01*
X16151220Y-8562340D02*
G75*
G03X16151220Y-8562340I-40000J0D01*
G01*
X16151220Y-9324340D02*
G75*
G03X16151220Y-9324340I-40000J0D01*
G01*
X15795620Y-7464798D02*
G75*
G03X15795620Y-7464798I-40000J0D01*
G01*
X15795620Y-8226798D02*
G75*
G03X15795620Y-8226798I-40000J0D01*
G01*
X14215059Y-5974546D02*
X14215059Y-6064546D01*
X14170059Y-6019546D02*
X14260059Y-6019546D01*
X14469059Y-5974546D02*
X14469059Y-6064546D01*
X14424059Y-6019546D02*
X14514059Y-6019546D01*
X15229332Y-5974546D02*
X15229332Y-6064546D01*
X15184332Y-6019546D02*
X15274332Y-6019546D01*
X15483332Y-5974546D02*
X15483332Y-6064546D01*
X15438332Y-6019546D02*
X15528332Y-6019546D01*
X14722196Y-5974546D02*
X14722196Y-6064546D01*
X14677196Y-6019546D02*
X14767196Y-6019546D01*
X14976196Y-5974546D02*
X14976196Y-6064546D01*
X14931196Y-6019546D02*
X15021196Y-6019546D01*
X13200786Y-5974546D02*
X13200786Y-6064546D01*
X13155786Y-6019546D02*
X13245786Y-6019546D01*
X13454786Y-5974546D02*
X13454786Y-6064546D01*
X13409786Y-6019546D02*
X13499786Y-6019546D01*
X12693650Y-5974546D02*
X12693650Y-6064546D01*
X12648650Y-6019546D02*
X12738650Y-6019546D01*
X12947650Y-5974546D02*
X12947650Y-6064546D01*
X12902650Y-6019546D02*
X12992650Y-6019546D01*
X13707923Y-5974546D02*
X13707923Y-6064546D01*
X13662923Y-6019546D02*
X13752923Y-6019546D01*
X13961923Y-5974546D02*
X13961923Y-6064546D01*
X13916923Y-6019546D02*
X14006923Y-6019546D01*
X13895968Y-9763322D02*
X13895968Y-9692611D01*
X13825256Y-9692611D01*
X13825256Y-9763322D01*
X13895968Y-9763322D01*
X14403968Y-9763322D02*
X14403968Y-9692611D01*
X14333256Y-9692611D01*
X14333256Y-9763322D01*
X14403968Y-9763322D01*
X10957356Y-7617256D02*
X10957356Y-7546544D01*
X10886644Y-7546544D01*
X10886644Y-7617256D01*
X10957356Y-7617256D01*
X10957356Y-7871256D02*
X10957356Y-7800544D01*
X10886644Y-7800544D01*
X10886644Y-7871256D01*
X10957356Y-7871256D01*
X10957356Y-8125256D02*
X10957356Y-8054544D01*
X10886644Y-8054544D01*
X10886644Y-8125256D01*
X10957356Y-8125256D01*
X10957356Y-8379256D02*
X10957356Y-8308544D01*
X10886644Y-8308544D01*
X10886644Y-8379256D01*
X10957356Y-8379256D01*
X10957356Y-8633256D02*
X10957356Y-8562544D01*
X10886644Y-8562544D01*
X10886644Y-8633256D01*
X10957356Y-8633256D01*
X11211356Y-7617256D02*
X11211356Y-7546544D01*
X11140644Y-7546544D01*
X11140644Y-7617256D01*
X11211356Y-7617256D01*
X11211356Y-7871256D02*
X11211356Y-7800544D01*
X11140644Y-7800544D01*
X11140644Y-7871256D01*
X11211356Y-7871256D01*
X11211356Y-8125256D02*
X11211356Y-8054544D01*
X11140644Y-8054544D01*
X11140644Y-8125256D01*
X11211356Y-8125256D01*
X11211356Y-8379256D02*
X11211356Y-8308544D01*
X11140644Y-8308544D01*
X11140644Y-8379256D01*
X11211356Y-8379256D01*
X11211356Y-8633256D02*
X11211356Y-8562544D01*
X11140644Y-8562544D01*
X11140644Y-8633256D01*
X11211356Y-8633256D01*
X12406572Y-10144556D02*
X12406572Y-10073844D01*
X12335860Y-10073844D01*
X12335860Y-10144556D01*
X12406572Y-10144556D01*
X12914572Y-10144556D02*
X12914572Y-10073844D01*
X12843860Y-10073844D01*
X12843860Y-10144556D01*
X12914572Y-10144556D01*
X15285516Y-10144556D02*
X15285516Y-10073844D01*
X15214804Y-10073844D01*
X15214804Y-10144556D01*
X15285516Y-10144556D01*
X15793516Y-10144556D02*
X15793516Y-10073844D01*
X15722804Y-10073844D01*
X15722804Y-10144556D01*
X15793516Y-10144556D01*
X12406572Y-9763322D02*
X12406572Y-9692611D01*
X12335860Y-9692611D01*
X12335860Y-9763322D01*
X12406572Y-9763322D01*
X12914572Y-9763322D02*
X12914572Y-9692611D01*
X12843860Y-9692611D01*
X12843860Y-9763322D01*
X12914572Y-9763322D01*
X15285516Y-9763322D02*
X15285516Y-9692611D01*
X15214804Y-9692611D01*
X15214804Y-9763322D01*
X15285516Y-9763322D01*
X15793516Y-9763322D02*
X15793516Y-9692611D01*
X15722804Y-9692611D01*
X15722804Y-9763322D01*
X15793516Y-9763322D01*
X13895968Y-10144556D02*
X13895968Y-10073844D01*
X13825256Y-10073844D01*
X13825256Y-10144556D01*
X13895968Y-10144556D01*
X14403968Y-10144556D02*
X14403968Y-10073844D01*
X14333256Y-10073844D01*
X14333256Y-10144556D01*
X14403968Y-10144556D01*
X11611289Y-6084018D02*
X11661327Y-6033980D01*
X11611289Y-5983942D01*
X11561251Y-6033980D01*
X11611289Y-6084018D01*
X11928789Y-6084018D02*
X11978827Y-6033980D01*
X11928789Y-5983942D01*
X11878751Y-6033980D01*
X11928789Y-6084018D01*
X12246289Y-6084018D02*
X12296327Y-6033980D01*
X12246289Y-5983942D01*
X12196251Y-6033980D01*
X12246289Y-6084018D01*
X12533100Y-13600938D02*
X12583138Y-13550900D01*
X12533100Y-13500862D01*
X12483062Y-13550900D01*
X12533100Y-13600938D01*
X12850600Y-13600938D02*
X12900638Y-13550900D01*
X12850600Y-13500862D01*
X12800562Y-13550900D01*
X12850600Y-13600938D01*
X13168100Y-13600938D02*
X13218138Y-13550900D01*
X13168100Y-13500862D01*
X13118062Y-13550900D01*
X13168100Y-13600938D01*
X15616500Y-13600938D02*
X15666538Y-13550900D01*
X15616500Y-13500862D01*
X15566462Y-13550900D01*
X15616500Y-13600938D01*
X15934000Y-13600938D02*
X15984038Y-13550900D01*
X15934000Y-13500862D01*
X15883962Y-13550900D01*
X15934000Y-13600938D01*
X16251500Y-13600938D02*
X16301538Y-13550900D01*
X16251500Y-13500862D01*
X16201462Y-13550900D01*
X16251500Y-13600938D01*
X15800832Y-5925058D02*
X15850870Y-5875020D01*
X15800832Y-5824982D01*
X15750794Y-5875020D01*
X15800832Y-5925058D01*
X15800832Y-6306058D02*
X15850870Y-6256020D01*
X15800832Y-6205982D01*
X15750794Y-6256020D01*
X15800832Y-6306058D01*
X10477500Y-13600938D02*
X10527538Y-13550900D01*
X10477500Y-13500862D01*
X10427462Y-13550900D01*
X10477500Y-13600938D01*
X10795000Y-13600938D02*
X10845038Y-13550900D01*
X10795000Y-13500862D01*
X10744962Y-13550900D01*
X10795000Y-13600938D01*
X11112500Y-13600938D02*
X11162538Y-13550900D01*
X11112500Y-13500862D01*
X11062462Y-13550900D01*
X11112500Y-13600938D01*
X14588700Y-13600938D02*
X14638738Y-13550900D01*
X14588700Y-13500862D01*
X14538662Y-13550900D01*
X14588700Y-13600938D01*
X14906200Y-13600938D02*
X14956238Y-13550900D01*
X14906200Y-13500862D01*
X14856162Y-13550900D01*
X14906200Y-13600938D01*
X15223700Y-13600938D02*
X15273738Y-13550900D01*
X15223700Y-13500862D01*
X15173662Y-13550900D01*
X15223700Y-13600938D01*
X11036300Y-5980938D02*
X11086338Y-5930900D01*
X11036300Y-5880862D01*
X10986262Y-5930900D01*
X11036300Y-5980938D01*
X11036300Y-6361938D02*
X11086338Y-6311900D01*
X11036300Y-6261862D01*
X10986262Y-6311900D01*
X11036300Y-6361938D01*
X13560900Y-13600938D02*
X13610938Y-13550900D01*
X13560900Y-13500862D01*
X13510862Y-13550900D01*
X13560900Y-13600938D01*
X13878400Y-13600938D02*
X13928438Y-13550900D01*
X13878400Y-13500862D01*
X13828362Y-13550900D01*
X13878400Y-13600938D01*
X14195900Y-13600938D02*
X14245938Y-13550900D01*
X14195900Y-13500862D01*
X14145862Y-13550900D01*
X14195900Y-13600938D01*
X11505300Y-13600938D02*
X11555338Y-13550900D01*
X11505300Y-13500862D01*
X11455262Y-13550900D01*
X11505300Y-13600938D01*
X11822800Y-13600938D02*
X11872838Y-13550900D01*
X11822800Y-13500862D01*
X11772762Y-13550900D01*
X11822800Y-13600938D01*
X12140300Y-13600938D02*
X12190338Y-13550900D01*
X12140300Y-13500862D01*
X12090262Y-13550900D01*
X12140300Y-13600938D01*
X16564000Y-14659000D02*
X16964000Y-15059000D01*
X16964000Y-14659000D02*
X16564000Y-15059000D01*
X16964000Y-14859000D02*
G75*
G03X16964000Y-14859000I-200000J0D01*
G01*
X16564000Y-4753000D02*
X16964000Y-5153000D01*
X16964000Y-4753000D02*
X16564000Y-5153000D01*
X16964000Y-4953000D02*
G75*
G03X16964000Y-4953000I-200000J0D01*
G01*
X10341000Y-14659000D02*
X10741000Y-15059000D01*
X10741000Y-14659000D02*
X10341000Y-15059000D01*
X10741000Y-14859000D02*
G75*
G03X10741000Y-14859000I-200000J0D01*
G01*
X10341000Y-4753000D02*
X10741000Y-5153000D01*
X10741000Y-4753000D02*
X10341000Y-5153000D01*
X10741000Y-4953000D02*
G75*
G03X10741000Y-4953000I-200000J0D01*
G01*
D12*
X10311928Y-15840214D02*
X10311928Y-15540214D01*
X10383357Y-15540214D01*
X10426214Y-15554500D01*
X10454786Y-15583071D01*
X10469071Y-15611643D01*
X10483357Y-15668786D01*
X10483357Y-15711643D01*
X10469071Y-15768786D01*
X10454786Y-15797357D01*
X10426214Y-15825929D01*
X10383357Y-15840214D01*
X10311928Y-15840214D01*
X10611928Y-15840214D02*
X10611928Y-15640214D01*
X10611928Y-15697357D02*
X10626214Y-15668786D01*
X10640500Y-15654500D01*
X10669071Y-15640214D01*
X10697643Y-15640214D01*
X10797643Y-15840214D02*
X10797643Y-15640214D01*
X10797643Y-15540214D02*
X10783357Y-15554500D01*
X10797643Y-15568786D01*
X10811928Y-15554500D01*
X10797643Y-15540214D01*
X10797643Y-15568786D01*
X10983357Y-15840214D02*
X10954786Y-15825929D01*
X10940500Y-15797357D01*
X10940500Y-15540214D01*
X11140500Y-15840214D02*
X11111928Y-15825929D01*
X11097643Y-15797357D01*
X11097643Y-15540214D01*
X11483357Y-15840214D02*
X11483357Y-15540214D01*
X11583357Y-15754500D01*
X11683357Y-15540214D01*
X11683357Y-15840214D01*
X11954786Y-15840214D02*
X11954786Y-15683071D01*
X11940500Y-15654500D01*
X11911928Y-15640214D01*
X11854786Y-15640214D01*
X11826214Y-15654500D01*
X11954786Y-15825929D02*
X11926214Y-15840214D01*
X11854786Y-15840214D01*
X11826214Y-15825929D01*
X11811928Y-15797357D01*
X11811928Y-15768786D01*
X11826214Y-15740214D01*
X11854786Y-15725929D01*
X11926214Y-15725929D01*
X11954786Y-15711643D01*
X12097643Y-15640214D02*
X12097643Y-15940214D01*
X12097643Y-15654500D02*
X12126214Y-15640214D01*
X12183357Y-15640214D01*
X12211928Y-15654500D01*
X12226214Y-15668786D01*
X12240500Y-15697357D01*
X12240500Y-15783071D01*
X12226214Y-15811643D01*
X12211928Y-15825929D01*
X12183357Y-15840214D01*
X12126214Y-15840214D01*
X12097643Y-15825929D01*
X12369071Y-15811643D02*
X12383357Y-15825929D01*
X12369071Y-15840214D01*
X12354786Y-15825929D01*
X12369071Y-15811643D01*
X12369071Y-15840214D01*
X12369071Y-15654500D02*
X12383357Y-15668786D01*
X12369071Y-15683071D01*
X12354786Y-15668786D01*
X12369071Y-15654500D01*
X12369071Y-15683071D01*
X9965500Y-16304500D02*
X10025500Y-16364500D01*
X10025500Y-16304500D02*
X9965500Y-16364500D01*
X10369071Y-16170214D02*
X10397643Y-16170214D01*
X10426214Y-16184500D01*
X10440500Y-16198786D01*
X10454786Y-16227357D01*
X10469071Y-16284500D01*
X10469071Y-16355929D01*
X10454786Y-16413071D01*
X10440500Y-16441643D01*
X10426214Y-16455929D01*
X10397643Y-16470214D01*
X10369071Y-16470214D01*
X10340500Y-16455929D01*
X10326214Y-16441643D01*
X10311928Y-16413071D01*
X10297643Y-16355929D01*
X10297643Y-16284500D01*
X10311928Y-16227357D01*
X10326214Y-16198786D01*
X10340500Y-16184500D01*
X10369071Y-16170214D01*
X10597643Y-16441643D02*
X10611928Y-16455929D01*
X10597643Y-16470214D01*
X10583357Y-16455929D01*
X10597643Y-16441643D01*
X10597643Y-16470214D01*
X10869071Y-16170214D02*
X10811928Y-16170214D01*
X10783357Y-16184500D01*
X10769071Y-16198786D01*
X10740500Y-16241643D01*
X10726214Y-16298786D01*
X10726214Y-16413071D01*
X10740500Y-16441643D01*
X10754786Y-16455929D01*
X10783357Y-16470214D01*
X10840500Y-16470214D01*
X10869071Y-16455929D01*
X10883357Y-16441643D01*
X10897643Y-16413071D01*
X10897643Y-16341643D01*
X10883357Y-16313071D01*
X10869071Y-16298786D01*
X10840500Y-16284500D01*
X10783357Y-16284500D01*
X10754786Y-16298786D01*
X10740500Y-16313071D01*
X10726214Y-16341643D01*
X11083357Y-16170214D02*
X11111928Y-16170214D01*
X11140500Y-16184500D01*
X11154786Y-16198786D01*
X11169071Y-16227357D01*
X11183357Y-16284500D01*
X11183357Y-16355929D01*
X11169071Y-16413071D01*
X11154786Y-16441643D01*
X11140500Y-16455929D01*
X11111928Y-16470214D01*
X11083357Y-16470214D01*
X11054786Y-16455929D01*
X11040500Y-16441643D01*
X11026214Y-16413071D01*
X11011928Y-16355929D01*
X11011928Y-16284500D01*
X11026214Y-16227357D01*
X11040500Y-16198786D01*
X11054786Y-16184500D01*
X11083357Y-16170214D01*
X11311928Y-16470214D02*
X11311928Y-16270214D01*
X11311928Y-16298786D02*
X11326214Y-16284500D01*
X11354786Y-16270214D01*
X11397643Y-16270214D01*
X11426214Y-16284500D01*
X11440500Y-16313071D01*
X11440500Y-16470214D01*
X11440500Y-16313071D02*
X11454786Y-16284500D01*
X11483357Y-16270214D01*
X11526214Y-16270214D01*
X11554786Y-16284500D01*
X11569071Y-16313071D01*
X11569071Y-16470214D01*
X11711928Y-16470214D02*
X11711928Y-16270214D01*
X11711928Y-16298786D02*
X11726214Y-16284500D01*
X11754786Y-16270214D01*
X11797643Y-16270214D01*
X11826214Y-16284500D01*
X11840500Y-16313071D01*
X11840500Y-16470214D01*
X11840500Y-16313071D02*
X11854786Y-16284500D01*
X11883357Y-16270214D01*
X11926214Y-16270214D01*
X11954786Y-16284500D01*
X11969071Y-16313071D01*
X11969071Y-16470214D01*
X12554786Y-16155929D02*
X12297643Y-16541643D01*
X12940500Y-16170214D02*
X12969071Y-16170214D01*
X12997643Y-16184500D01*
X13011928Y-16198786D01*
X13026214Y-16227357D01*
X13040500Y-16284500D01*
X13040500Y-16355929D01*
X13026214Y-16413071D01*
X13011928Y-16441643D01*
X12997643Y-16455929D01*
X12969071Y-16470214D01*
X12940500Y-16470214D01*
X12911928Y-16455929D01*
X12897643Y-16441643D01*
X12883357Y-16413071D01*
X12869071Y-16355929D01*
X12869071Y-16284500D01*
X12883357Y-16227357D01*
X12897643Y-16198786D01*
X12911928Y-16184500D01*
X12940500Y-16170214D01*
X13169071Y-16441643D02*
X13183357Y-16455929D01*
X13169071Y-16470214D01*
X13154786Y-16455929D01*
X13169071Y-16441643D01*
X13169071Y-16470214D01*
X13369071Y-16170214D02*
X13397643Y-16170214D01*
X13426214Y-16184500D01*
X13440500Y-16198786D01*
X13454786Y-16227357D01*
X13469071Y-16284500D01*
X13469071Y-16355929D01*
X13454786Y-16413071D01*
X13440500Y-16441643D01*
X13426214Y-16455929D01*
X13397643Y-16470214D01*
X13369071Y-16470214D01*
X13340500Y-16455929D01*
X13326214Y-16441643D01*
X13311928Y-16413071D01*
X13297643Y-16355929D01*
X13297643Y-16284500D01*
X13311928Y-16227357D01*
X13326214Y-16198786D01*
X13340500Y-16184500D01*
X13369071Y-16170214D01*
X13583357Y-16198786D02*
X13597643Y-16184500D01*
X13626214Y-16170214D01*
X13697643Y-16170214D01*
X13726214Y-16184500D01*
X13740500Y-16198786D01*
X13754786Y-16227357D01*
X13754786Y-16255929D01*
X13740500Y-16298786D01*
X13569071Y-16470214D01*
X13754786Y-16470214D01*
X14011928Y-16270214D02*
X14011928Y-16470214D01*
X13940500Y-16155929D02*
X13869071Y-16370214D01*
X14054786Y-16370214D01*
X14154786Y-16170214D02*
X14154786Y-16227357D01*
X14269071Y-16170214D02*
X14269071Y-16227357D01*
X14711928Y-16584500D02*
X14697643Y-16570214D01*
X14669071Y-16527357D01*
X14654786Y-16498786D01*
X14640500Y-16455929D01*
X14626214Y-16384500D01*
X14626214Y-16327357D01*
X14640500Y-16255929D01*
X14654786Y-16213071D01*
X14669071Y-16184500D01*
X14697643Y-16141643D01*
X14711928Y-16127357D01*
X14954786Y-16170214D02*
X14897643Y-16170214D01*
X14869071Y-16184500D01*
X14854786Y-16198786D01*
X14826214Y-16241643D01*
X14811928Y-16298786D01*
X14811928Y-16413071D01*
X14826214Y-16441643D01*
X14840500Y-16455929D01*
X14869071Y-16470214D01*
X14926214Y-16470214D01*
X14954786Y-16455929D01*
X14969071Y-16441643D01*
X14983357Y-16413071D01*
X14983357Y-16341643D01*
X14969071Y-16313071D01*
X14954786Y-16298786D01*
X14926214Y-16284500D01*
X14869071Y-16284500D01*
X14840500Y-16298786D01*
X14826214Y-16313071D01*
X14811928Y-16341643D01*
X15097643Y-16198786D02*
X15111928Y-16184500D01*
X15140500Y-16170214D01*
X15211928Y-16170214D01*
X15240500Y-16184500D01*
X15254786Y-16198786D01*
X15269071Y-16227357D01*
X15269071Y-16255929D01*
X15254786Y-16298786D01*
X15083357Y-16470214D01*
X15269071Y-16470214D01*
X15626214Y-16470214D02*
X15626214Y-16170214D01*
X15754786Y-16470214D02*
X15754786Y-16313071D01*
X15740500Y-16284500D01*
X15711928Y-16270214D01*
X15669071Y-16270214D01*
X15640500Y-16284500D01*
X15626214Y-16298786D01*
X15940500Y-16470214D02*
X15911928Y-16455929D01*
X15897643Y-16441643D01*
X15883357Y-16413071D01*
X15883357Y-16327357D01*
X15897643Y-16298786D01*
X15911928Y-16284500D01*
X15940500Y-16270214D01*
X15983357Y-16270214D01*
X16011928Y-16284500D01*
X16026214Y-16298786D01*
X16040500Y-16327357D01*
X16040500Y-16413071D01*
X16026214Y-16441643D01*
X16011928Y-16455929D01*
X15983357Y-16470214D01*
X15940500Y-16470214D01*
X16211928Y-16470214D02*
X16183357Y-16455929D01*
X16169071Y-16427357D01*
X16169071Y-16170214D01*
X16440500Y-16455929D02*
X16411928Y-16470214D01*
X16354786Y-16470214D01*
X16326214Y-16455929D01*
X16311928Y-16427357D01*
X16311928Y-16313071D01*
X16326214Y-16284500D01*
X16354786Y-16270214D01*
X16411928Y-16270214D01*
X16440500Y-16284500D01*
X16454786Y-16313071D01*
X16454786Y-16341643D01*
X16311928Y-16370214D01*
X16569071Y-16455929D02*
X16597643Y-16470214D01*
X16654786Y-16470214D01*
X16683357Y-16455929D01*
X16697643Y-16427357D01*
X16697643Y-16413071D01*
X16683357Y-16384500D01*
X16654786Y-16370214D01*
X16611928Y-16370214D01*
X16583357Y-16355929D01*
X16569071Y-16327357D01*
X16569071Y-16313071D01*
X16583357Y-16284500D01*
X16611928Y-16270214D01*
X16654786Y-16270214D01*
X16683357Y-16284500D01*
X16797643Y-16584500D02*
X16811928Y-16570214D01*
X16840500Y-16527357D01*
X16854786Y-16498786D01*
X16869071Y-16455929D01*
X16883357Y-16384500D01*
X16883357Y-16327357D01*
X16869071Y-16255929D01*
X16854786Y-16213071D01*
X16840500Y-16184500D01*
X16811928Y-16141643D01*
X16797643Y-16127357D01*
X10025500Y-16730500D02*
G75*
G03X10025500Y-16730500I-40000J0D01*
G01*
X10369071Y-16566214D02*
X10397643Y-16566214D01*
X10426214Y-16580500D01*
X10440500Y-16594786D01*
X10454786Y-16623357D01*
X10469071Y-16680500D01*
X10469071Y-16751929D01*
X10454786Y-16809072D01*
X10440500Y-16837643D01*
X10426214Y-16851929D01*
X10397643Y-16866214D01*
X10369071Y-16866214D01*
X10340500Y-16851929D01*
X10326214Y-16837643D01*
X10311928Y-16809072D01*
X10297643Y-16751929D01*
X10297643Y-16680500D01*
X10311928Y-16623357D01*
X10326214Y-16594786D01*
X10340500Y-16580500D01*
X10369071Y-16566214D01*
X10597643Y-16837643D02*
X10611928Y-16851929D01*
X10597643Y-16866214D01*
X10583357Y-16851929D01*
X10597643Y-16837643D01*
X10597643Y-16866214D01*
X10783357Y-16694786D02*
X10754786Y-16680500D01*
X10740500Y-16666214D01*
X10726214Y-16637643D01*
X10726214Y-16623357D01*
X10740500Y-16594786D01*
X10754786Y-16580500D01*
X10783357Y-16566214D01*
X10840500Y-16566214D01*
X10869071Y-16580500D01*
X10883357Y-16594786D01*
X10897643Y-16623357D01*
X10897643Y-16637643D01*
X10883357Y-16666214D01*
X10869071Y-16680500D01*
X10840500Y-16694786D01*
X10783357Y-16694786D01*
X10754786Y-16709071D01*
X10740500Y-16723357D01*
X10726214Y-16751929D01*
X10726214Y-16809072D01*
X10740500Y-16837643D01*
X10754786Y-16851929D01*
X10783357Y-16866214D01*
X10840500Y-16866214D01*
X10869071Y-16851929D01*
X10883357Y-16837643D01*
X10897643Y-16809072D01*
X10897643Y-16751929D01*
X10883357Y-16723357D01*
X10869071Y-16709071D01*
X10840500Y-16694786D01*
X11083357Y-16566214D02*
X11111928Y-16566214D01*
X11140500Y-16580500D01*
X11154786Y-16594786D01*
X11169071Y-16623357D01*
X11183357Y-16680500D01*
X11183357Y-16751929D01*
X11169071Y-16809072D01*
X11154786Y-16837643D01*
X11140500Y-16851929D01*
X11111928Y-16866214D01*
X11083357Y-16866214D01*
X11054786Y-16851929D01*
X11040500Y-16837643D01*
X11026214Y-16809072D01*
X11011928Y-16751929D01*
X11011928Y-16680500D01*
X11026214Y-16623357D01*
X11040500Y-16594786D01*
X11054786Y-16580500D01*
X11083357Y-16566214D01*
X11311928Y-16866214D02*
X11311928Y-16666214D01*
X11311928Y-16694786D02*
X11326214Y-16680500D01*
X11354786Y-16666214D01*
X11397643Y-16666214D01*
X11426214Y-16680500D01*
X11440500Y-16709071D01*
X11440500Y-16866214D01*
X11440500Y-16709071D02*
X11454786Y-16680500D01*
X11483357Y-16666214D01*
X11526214Y-16666214D01*
X11554786Y-16680500D01*
X11569071Y-16709071D01*
X11569071Y-16866214D01*
X11711928Y-16866214D02*
X11711928Y-16666214D01*
X11711928Y-16694786D02*
X11726214Y-16680500D01*
X11754786Y-16666214D01*
X11797643Y-16666214D01*
X11826214Y-16680500D01*
X11840500Y-16709071D01*
X11840500Y-16866214D01*
X11840500Y-16709071D02*
X11854786Y-16680500D01*
X11883357Y-16666214D01*
X11926214Y-16666214D01*
X11954786Y-16680500D01*
X11969071Y-16709071D01*
X11969071Y-16866214D01*
X12554786Y-16551929D02*
X12297643Y-16937643D01*
X12940500Y-16566214D02*
X12969071Y-16566214D01*
X12997643Y-16580500D01*
X13011928Y-16594786D01*
X13026214Y-16623357D01*
X13040500Y-16680500D01*
X13040500Y-16751929D01*
X13026214Y-16809072D01*
X13011928Y-16837643D01*
X12997643Y-16851929D01*
X12969071Y-16866214D01*
X12940500Y-16866214D01*
X12911928Y-16851929D01*
X12897643Y-16837643D01*
X12883357Y-16809072D01*
X12869071Y-16751929D01*
X12869071Y-16680500D01*
X12883357Y-16623357D01*
X12897643Y-16594786D01*
X12911928Y-16580500D01*
X12940500Y-16566214D01*
X13169071Y-16837643D02*
X13183357Y-16851929D01*
X13169071Y-16866214D01*
X13154786Y-16851929D01*
X13169071Y-16837643D01*
X13169071Y-16866214D01*
X13369071Y-16566214D02*
X13397643Y-16566214D01*
X13426214Y-16580500D01*
X13440500Y-16594786D01*
X13454786Y-16623357D01*
X13469071Y-16680500D01*
X13469071Y-16751929D01*
X13454786Y-16809072D01*
X13440500Y-16837643D01*
X13426214Y-16851929D01*
X13397643Y-16866214D01*
X13369071Y-16866214D01*
X13340500Y-16851929D01*
X13326214Y-16837643D01*
X13311928Y-16809072D01*
X13297643Y-16751929D01*
X13297643Y-16680500D01*
X13311928Y-16623357D01*
X13326214Y-16594786D01*
X13340500Y-16580500D01*
X13369071Y-16566214D01*
X13569071Y-16566214D02*
X13754786Y-16566214D01*
X13654786Y-16680500D01*
X13697643Y-16680500D01*
X13726214Y-16694786D01*
X13740500Y-16709071D01*
X13754786Y-16737643D01*
X13754786Y-16809072D01*
X13740500Y-16837643D01*
X13726214Y-16851929D01*
X13697643Y-16866214D01*
X13611928Y-16866214D01*
X13583357Y-16851929D01*
X13569071Y-16837643D01*
X14040500Y-16866214D02*
X13869071Y-16866214D01*
X13954786Y-16866214D02*
X13954786Y-16566214D01*
X13926214Y-16609071D01*
X13897643Y-16637643D01*
X13869071Y-16651929D01*
X14154786Y-16566214D02*
X14154786Y-16623357D01*
X14269071Y-16566214D02*
X14269071Y-16623357D01*
X14711928Y-16980500D02*
X14697643Y-16966214D01*
X14669071Y-16923357D01*
X14654786Y-16894786D01*
X14640500Y-16851929D01*
X14626214Y-16780500D01*
X14626214Y-16723357D01*
X14640500Y-16651929D01*
X14654786Y-16609071D01*
X14669071Y-16580500D01*
X14697643Y-16537643D01*
X14711928Y-16523357D01*
X14983357Y-16866214D02*
X14811928Y-16866214D01*
X14897643Y-16866214D02*
X14897643Y-16566214D01*
X14869071Y-16609071D01*
X14840500Y-16637643D01*
X14811928Y-16651929D01*
X15269071Y-16866214D02*
X15097643Y-16866214D01*
X15183357Y-16866214D02*
X15183357Y-16566214D01*
X15154786Y-16609071D01*
X15126214Y-16637643D01*
X15097643Y-16651929D01*
X15526214Y-16566214D02*
X15469071Y-16566214D01*
X15440500Y-16580500D01*
X15426214Y-16594786D01*
X15397643Y-16637643D01*
X15383357Y-16694786D01*
X15383357Y-16809072D01*
X15397643Y-16837643D01*
X15411928Y-16851929D01*
X15440500Y-16866214D01*
X15497643Y-16866214D01*
X15526214Y-16851929D01*
X15540500Y-16837643D01*
X15554786Y-16809072D01*
X15554786Y-16737643D01*
X15540500Y-16709071D01*
X15526214Y-16694786D01*
X15497643Y-16680500D01*
X15440500Y-16680500D01*
X15411928Y-16694786D01*
X15397643Y-16709071D01*
X15383357Y-16737643D01*
X15911928Y-16866214D02*
X15911928Y-16566214D01*
X16040500Y-16866214D02*
X16040500Y-16709071D01*
X16026214Y-16680500D01*
X15997643Y-16666214D01*
X15954786Y-16666214D01*
X15926214Y-16680500D01*
X15911928Y-16694786D01*
X16226214Y-16866214D02*
X16197643Y-16851929D01*
X16183357Y-16837643D01*
X16169071Y-16809072D01*
X16169071Y-16723357D01*
X16183357Y-16694786D01*
X16197643Y-16680500D01*
X16226214Y-16666214D01*
X16269071Y-16666214D01*
X16297643Y-16680500D01*
X16311928Y-16694786D01*
X16326214Y-16723357D01*
X16326214Y-16809072D01*
X16311928Y-16837643D01*
X16297643Y-16851929D01*
X16269071Y-16866214D01*
X16226214Y-16866214D01*
X16497643Y-16866214D02*
X16469071Y-16851929D01*
X16454786Y-16823357D01*
X16454786Y-16566214D01*
X16726214Y-16851929D02*
X16697643Y-16866214D01*
X16640500Y-16866214D01*
X16611928Y-16851929D01*
X16597643Y-16823357D01*
X16597643Y-16709071D01*
X16611928Y-16680500D01*
X16640500Y-16666214D01*
X16697643Y-16666214D01*
X16726214Y-16680500D01*
X16740500Y-16709071D01*
X16740500Y-16737643D01*
X16597643Y-16766214D01*
X16854786Y-16851929D02*
X16883357Y-16866214D01*
X16940500Y-16866214D01*
X16969071Y-16851929D01*
X16983357Y-16823357D01*
X16983357Y-16809072D01*
X16969071Y-16780500D01*
X16940500Y-16766214D01*
X16897643Y-16766214D01*
X16869071Y-16751929D01*
X16854786Y-16723357D01*
X16854786Y-16709071D01*
X16869071Y-16680500D01*
X16897643Y-16666214D01*
X16940500Y-16666214D01*
X16969071Y-16680500D01*
X17083357Y-16980500D02*
X17097643Y-16966214D01*
X17126214Y-16923357D01*
X17140500Y-16894786D01*
X17154786Y-16851929D01*
X17169071Y-16780500D01*
X17169071Y-16723357D01*
X17154786Y-16651929D01*
X17140500Y-16609071D01*
X17126214Y-16580500D01*
X17097643Y-16537643D01*
X17083357Y-16523357D01*
X9980500Y-17081500D02*
X9980500Y-17171500D01*
X9935500Y-17126500D02*
X10025500Y-17126500D01*
X10369071Y-16962214D02*
X10397643Y-16962214D01*
X10426214Y-16976500D01*
X10440500Y-16990786D01*
X10454786Y-17019357D01*
X10469071Y-17076500D01*
X10469071Y-17147929D01*
X10454786Y-17205072D01*
X10440500Y-17233643D01*
X10426214Y-17247929D01*
X10397643Y-17262214D01*
X10369071Y-17262214D01*
X10340500Y-17247929D01*
X10326214Y-17233643D01*
X10311928Y-17205072D01*
X10297643Y-17147929D01*
X10297643Y-17076500D01*
X10311928Y-17019357D01*
X10326214Y-16990786D01*
X10340500Y-16976500D01*
X10369071Y-16962214D01*
X10597643Y-17233643D02*
X10611928Y-17247929D01*
X10597643Y-17262214D01*
X10583357Y-17247929D01*
X10597643Y-17233643D01*
X10597643Y-17262214D01*
X10754786Y-17262214D02*
X10811928Y-17262214D01*
X10840500Y-17247929D01*
X10854786Y-17233643D01*
X10883357Y-17190786D01*
X10897643Y-17133643D01*
X10897643Y-17019357D01*
X10883357Y-16990786D01*
X10869071Y-16976500D01*
X10840500Y-16962214D01*
X10783357Y-16962214D01*
X10754786Y-16976500D01*
X10740500Y-16990786D01*
X10726214Y-17019357D01*
X10726214Y-17090786D01*
X10740500Y-17119357D01*
X10754786Y-17133643D01*
X10783357Y-17147929D01*
X10840500Y-17147929D01*
X10869071Y-17133643D01*
X10883357Y-17119357D01*
X10897643Y-17090786D01*
X11083357Y-16962214D02*
X11111928Y-16962214D01*
X11140500Y-16976500D01*
X11154786Y-16990786D01*
X11169071Y-17019357D01*
X11183357Y-17076500D01*
X11183357Y-17147929D01*
X11169071Y-17205072D01*
X11154786Y-17233643D01*
X11140500Y-17247929D01*
X11111928Y-17262214D01*
X11083357Y-17262214D01*
X11054786Y-17247929D01*
X11040500Y-17233643D01*
X11026214Y-17205072D01*
X11011928Y-17147929D01*
X11011928Y-17076500D01*
X11026214Y-17019357D01*
X11040500Y-16990786D01*
X11054786Y-16976500D01*
X11083357Y-16962214D01*
X11311928Y-17262214D02*
X11311928Y-17062214D01*
X11311928Y-17090786D02*
X11326214Y-17076500D01*
X11354786Y-17062214D01*
X11397643Y-17062214D01*
X11426214Y-17076500D01*
X11440500Y-17105072D01*
X11440500Y-17262214D01*
X11440500Y-17105072D02*
X11454786Y-17076500D01*
X11483357Y-17062214D01*
X11526214Y-17062214D01*
X11554786Y-17076500D01*
X11569071Y-17105072D01*
X11569071Y-17262214D01*
X11711928Y-17262214D02*
X11711928Y-17062214D01*
X11711928Y-17090786D02*
X11726214Y-17076500D01*
X11754786Y-17062214D01*
X11797643Y-17062214D01*
X11826214Y-17076500D01*
X11840500Y-17105072D01*
X11840500Y-17262214D01*
X11840500Y-17105072D02*
X11854786Y-17076500D01*
X11883357Y-17062214D01*
X11926214Y-17062214D01*
X11954786Y-17076500D01*
X11969071Y-17105072D01*
X11969071Y-17262214D01*
X12554786Y-16947929D02*
X12297643Y-17333643D01*
X12940500Y-16962214D02*
X12969071Y-16962214D01*
X12997643Y-16976500D01*
X13011928Y-16990786D01*
X13026214Y-17019357D01*
X13040500Y-17076500D01*
X13040500Y-17147929D01*
X13026214Y-17205072D01*
X13011928Y-17233643D01*
X12997643Y-17247929D01*
X12969071Y-17262214D01*
X12940500Y-17262214D01*
X12911928Y-17247929D01*
X12897643Y-17233643D01*
X12883357Y-17205072D01*
X12869071Y-17147929D01*
X12869071Y-17076500D01*
X12883357Y-17019357D01*
X12897643Y-16990786D01*
X12911928Y-16976500D01*
X12940500Y-16962214D01*
X13169071Y-17233643D02*
X13183357Y-17247929D01*
X13169071Y-17262214D01*
X13154786Y-17247929D01*
X13169071Y-17233643D01*
X13169071Y-17262214D01*
X13369071Y-16962214D02*
X13397643Y-16962214D01*
X13426214Y-16976500D01*
X13440500Y-16990786D01*
X13454786Y-17019357D01*
X13469071Y-17076500D01*
X13469071Y-17147929D01*
X13454786Y-17205072D01*
X13440500Y-17233643D01*
X13426214Y-17247929D01*
X13397643Y-17262214D01*
X13369071Y-17262214D01*
X13340500Y-17247929D01*
X13326214Y-17233643D01*
X13311928Y-17205072D01*
X13297643Y-17147929D01*
X13297643Y-17076500D01*
X13311928Y-17019357D01*
X13326214Y-16990786D01*
X13340500Y-16976500D01*
X13369071Y-16962214D01*
X13569071Y-16962214D02*
X13754786Y-16962214D01*
X13654786Y-17076500D01*
X13697643Y-17076500D01*
X13726214Y-17090786D01*
X13740500Y-17105072D01*
X13754786Y-17133643D01*
X13754786Y-17205072D01*
X13740500Y-17233643D01*
X13726214Y-17247929D01*
X13697643Y-17262214D01*
X13611928Y-17262214D01*
X13583357Y-17247929D01*
X13569071Y-17233643D01*
X14026214Y-16962214D02*
X13883357Y-16962214D01*
X13869071Y-17105072D01*
X13883357Y-17090786D01*
X13911928Y-17076500D01*
X13983357Y-17076500D01*
X14011928Y-17090786D01*
X14026214Y-17105072D01*
X14040500Y-17133643D01*
X14040500Y-17205072D01*
X14026214Y-17233643D01*
X14011928Y-17247929D01*
X13983357Y-17262214D01*
X13911928Y-17262214D01*
X13883357Y-17247929D01*
X13869071Y-17233643D01*
X14154786Y-16962214D02*
X14154786Y-17019357D01*
X14269071Y-16962214D02*
X14269071Y-17019357D01*
X14711928Y-17376500D02*
X14697643Y-17362214D01*
X14669071Y-17319357D01*
X14654786Y-17290786D01*
X14640500Y-17247929D01*
X14626214Y-17176500D01*
X14626214Y-17119357D01*
X14640500Y-17047929D01*
X14654786Y-17005072D01*
X14669071Y-16976500D01*
X14697643Y-16933643D01*
X14711928Y-16919357D01*
X14983357Y-17262214D02*
X14811928Y-17262214D01*
X14897643Y-17262214D02*
X14897643Y-16962214D01*
X14869071Y-17005072D01*
X14840500Y-17033643D01*
X14811928Y-17047929D01*
X15097643Y-16990786D02*
X15111928Y-16976500D01*
X15140500Y-16962214D01*
X15211928Y-16962214D01*
X15240500Y-16976500D01*
X15254786Y-16990786D01*
X15269071Y-17019357D01*
X15269071Y-17047929D01*
X15254786Y-17090786D01*
X15083357Y-17262214D01*
X15269071Y-17262214D01*
X15626214Y-17262214D02*
X15626214Y-16962214D01*
X15754786Y-17262214D02*
X15754786Y-17105072D01*
X15740500Y-17076500D01*
X15711928Y-17062214D01*
X15669071Y-17062214D01*
X15640500Y-17076500D01*
X15626214Y-17090786D01*
X15940500Y-17262214D02*
X15911928Y-17247929D01*
X15897643Y-17233643D01*
X15883357Y-17205072D01*
X15883357Y-17119357D01*
X15897643Y-17090786D01*
X15911928Y-17076500D01*
X15940500Y-17062214D01*
X15983357Y-17062214D01*
X16011928Y-17076500D01*
X16026214Y-17090786D01*
X16040500Y-17119357D01*
X16040500Y-17205072D01*
X16026214Y-17233643D01*
X16011928Y-17247929D01*
X15983357Y-17262214D01*
X15940500Y-17262214D01*
X16211928Y-17262214D02*
X16183357Y-17247929D01*
X16169071Y-17219357D01*
X16169071Y-16962214D01*
X16440500Y-17247929D02*
X16411928Y-17262214D01*
X16354786Y-17262214D01*
X16326214Y-17247929D01*
X16311928Y-17219357D01*
X16311928Y-17105072D01*
X16326214Y-17076500D01*
X16354786Y-17062214D01*
X16411928Y-17062214D01*
X16440500Y-17076500D01*
X16454786Y-17105072D01*
X16454786Y-17133643D01*
X16311928Y-17162214D01*
X16569071Y-17247929D02*
X16597643Y-17262214D01*
X16654786Y-17262214D01*
X16683357Y-17247929D01*
X16697643Y-17219357D01*
X16697643Y-17205072D01*
X16683357Y-17176500D01*
X16654786Y-17162214D01*
X16611928Y-17162214D01*
X16583357Y-17147929D01*
X16569071Y-17119357D01*
X16569071Y-17105072D01*
X16583357Y-17076500D01*
X16611928Y-17062214D01*
X16654786Y-17062214D01*
X16683357Y-17076500D01*
X16797643Y-17376500D02*
X16811928Y-17362214D01*
X16840500Y-17319357D01*
X16854786Y-17290786D01*
X16869071Y-17247929D01*
X16883357Y-17176500D01*
X16883357Y-17119357D01*
X16869071Y-17047929D01*
X16854786Y-17005072D01*
X16840500Y-16976500D01*
X16811928Y-16933643D01*
X16797643Y-16919357D01*
X10010856Y-17557856D02*
X10010856Y-17487144D01*
X9940144Y-17487144D01*
X9940144Y-17557856D01*
X10010856Y-17557856D01*
X10469071Y-17658214D02*
X10297643Y-17658214D01*
X10383357Y-17658214D02*
X10383357Y-17358214D01*
X10354786Y-17401072D01*
X10326214Y-17429643D01*
X10297643Y-17443929D01*
X10597643Y-17629643D02*
X10611928Y-17643929D01*
X10597643Y-17658214D01*
X10583357Y-17643929D01*
X10597643Y-17629643D01*
X10597643Y-17658214D01*
X10797643Y-17358214D02*
X10826214Y-17358214D01*
X10854786Y-17372500D01*
X10869071Y-17386786D01*
X10883357Y-17415357D01*
X10897643Y-17472500D01*
X10897643Y-17543929D01*
X10883357Y-17601072D01*
X10869071Y-17629643D01*
X10854786Y-17643929D01*
X10826214Y-17658214D01*
X10797643Y-17658214D01*
X10769071Y-17643929D01*
X10754786Y-17629643D01*
X10740500Y-17601072D01*
X10726214Y-17543929D01*
X10726214Y-17472500D01*
X10740500Y-17415357D01*
X10754786Y-17386786D01*
X10769071Y-17372500D01*
X10797643Y-17358214D01*
X11083357Y-17358214D02*
X11111928Y-17358214D01*
X11140500Y-17372500D01*
X11154786Y-17386786D01*
X11169071Y-17415357D01*
X11183357Y-17472500D01*
X11183357Y-17543929D01*
X11169071Y-17601072D01*
X11154786Y-17629643D01*
X11140500Y-17643929D01*
X11111928Y-17658214D01*
X11083357Y-17658214D01*
X11054786Y-17643929D01*
X11040500Y-17629643D01*
X11026214Y-17601072D01*
X11011928Y-17543929D01*
X11011928Y-17472500D01*
X11026214Y-17415357D01*
X11040500Y-17386786D01*
X11054786Y-17372500D01*
X11083357Y-17358214D01*
X11311928Y-17658214D02*
X11311928Y-17458214D01*
X11311928Y-17486786D02*
X11326214Y-17472500D01*
X11354786Y-17458214D01*
X11397643Y-17458214D01*
X11426214Y-17472500D01*
X11440500Y-17501072D01*
X11440500Y-17658214D01*
X11440500Y-17501072D02*
X11454786Y-17472500D01*
X11483357Y-17458214D01*
X11526214Y-17458214D01*
X11554786Y-17472500D01*
X11569071Y-17501072D01*
X11569071Y-17658214D01*
X11711928Y-17658214D02*
X11711928Y-17458214D01*
X11711928Y-17486786D02*
X11726214Y-17472500D01*
X11754786Y-17458214D01*
X11797643Y-17458214D01*
X11826214Y-17472500D01*
X11840500Y-17501072D01*
X11840500Y-17658214D01*
X11840500Y-17501072D02*
X11854786Y-17472500D01*
X11883357Y-17458214D01*
X11926214Y-17458214D01*
X11954786Y-17472500D01*
X11969071Y-17501072D01*
X11969071Y-17658214D01*
X12554786Y-17343929D02*
X12297643Y-17729643D01*
X12940500Y-17358214D02*
X12969071Y-17358214D01*
X12997643Y-17372500D01*
X13011928Y-17386786D01*
X13026214Y-17415357D01*
X13040500Y-17472500D01*
X13040500Y-17543929D01*
X13026214Y-17601072D01*
X13011928Y-17629643D01*
X12997643Y-17643929D01*
X12969071Y-17658214D01*
X12940500Y-17658214D01*
X12911928Y-17643929D01*
X12897643Y-17629643D01*
X12883357Y-17601072D01*
X12869071Y-17543929D01*
X12869071Y-17472500D01*
X12883357Y-17415357D01*
X12897643Y-17386786D01*
X12911928Y-17372500D01*
X12940500Y-17358214D01*
X13169071Y-17629643D02*
X13183357Y-17643929D01*
X13169071Y-17658214D01*
X13154786Y-17643929D01*
X13169071Y-17629643D01*
X13169071Y-17658214D01*
X13369071Y-17358214D02*
X13397643Y-17358214D01*
X13426214Y-17372500D01*
X13440500Y-17386786D01*
X13454786Y-17415357D01*
X13469071Y-17472500D01*
X13469071Y-17543929D01*
X13454786Y-17601072D01*
X13440500Y-17629643D01*
X13426214Y-17643929D01*
X13397643Y-17658214D01*
X13369071Y-17658214D01*
X13340500Y-17643929D01*
X13326214Y-17629643D01*
X13311928Y-17601072D01*
X13297643Y-17543929D01*
X13297643Y-17472500D01*
X13311928Y-17415357D01*
X13326214Y-17386786D01*
X13340500Y-17372500D01*
X13369071Y-17358214D01*
X13569071Y-17358214D02*
X13754786Y-17358214D01*
X13654786Y-17472500D01*
X13697643Y-17472500D01*
X13726214Y-17486786D01*
X13740500Y-17501072D01*
X13754786Y-17529643D01*
X13754786Y-17601072D01*
X13740500Y-17629643D01*
X13726214Y-17643929D01*
X13697643Y-17658214D01*
X13611928Y-17658214D01*
X13583357Y-17643929D01*
X13569071Y-17629643D01*
X13897643Y-17658214D02*
X13954786Y-17658214D01*
X13983357Y-17643929D01*
X13997643Y-17629643D01*
X14026214Y-17586786D01*
X14040500Y-17529643D01*
X14040500Y-17415357D01*
X14026214Y-17386786D01*
X14011928Y-17372500D01*
X13983357Y-17358214D01*
X13926214Y-17358214D01*
X13897643Y-17372500D01*
X13883357Y-17386786D01*
X13869071Y-17415357D01*
X13869071Y-17486786D01*
X13883357Y-17515357D01*
X13897643Y-17529643D01*
X13926214Y-17543929D01*
X13983357Y-17543929D01*
X14011928Y-17529643D01*
X14026214Y-17515357D01*
X14040500Y-17486786D01*
X14154786Y-17358214D02*
X14154786Y-17415357D01*
X14269071Y-17358214D02*
X14269071Y-17415357D01*
X14711928Y-17772500D02*
X14697643Y-17758214D01*
X14669071Y-17715357D01*
X14654786Y-17686786D01*
X14640500Y-17643929D01*
X14626214Y-17572500D01*
X14626214Y-17515357D01*
X14640500Y-17443929D01*
X14654786Y-17401072D01*
X14669071Y-17372500D01*
X14697643Y-17329643D01*
X14711928Y-17315357D01*
X14811928Y-17386786D02*
X14826214Y-17372500D01*
X14854786Y-17358214D01*
X14926214Y-17358214D01*
X14954786Y-17372500D01*
X14969071Y-17386786D01*
X14983357Y-17415357D01*
X14983357Y-17443929D01*
X14969071Y-17486786D01*
X14797643Y-17658214D01*
X14983357Y-17658214D01*
X15097643Y-17386786D02*
X15111928Y-17372500D01*
X15140500Y-17358214D01*
X15211928Y-17358214D01*
X15240500Y-17372500D01*
X15254786Y-17386786D01*
X15269071Y-17415357D01*
X15269071Y-17443929D01*
X15254786Y-17486786D01*
X15083357Y-17658214D01*
X15269071Y-17658214D01*
X15626214Y-17658214D02*
X15626214Y-17358214D01*
X15754786Y-17658214D02*
X15754786Y-17501072D01*
X15740500Y-17472500D01*
X15711928Y-17458214D01*
X15669071Y-17458214D01*
X15640500Y-17472500D01*
X15626214Y-17486786D01*
X15940500Y-17658214D02*
X15911928Y-17643929D01*
X15897643Y-17629643D01*
X15883357Y-17601072D01*
X15883357Y-17515357D01*
X15897643Y-17486786D01*
X15911928Y-17472500D01*
X15940500Y-17458214D01*
X15983357Y-17458214D01*
X16011928Y-17472500D01*
X16026214Y-17486786D01*
X16040500Y-17515357D01*
X16040500Y-17601072D01*
X16026214Y-17629643D01*
X16011928Y-17643929D01*
X15983357Y-17658214D01*
X15940500Y-17658214D01*
X16211928Y-17658214D02*
X16183357Y-17643929D01*
X16169071Y-17615357D01*
X16169071Y-17358214D01*
X16440500Y-17643929D02*
X16411928Y-17658214D01*
X16354786Y-17658214D01*
X16326214Y-17643929D01*
X16311928Y-17615357D01*
X16311928Y-17501072D01*
X16326214Y-17472500D01*
X16354786Y-17458214D01*
X16411928Y-17458214D01*
X16440500Y-17472500D01*
X16454786Y-17501072D01*
X16454786Y-17529643D01*
X16311928Y-17558214D01*
X16569071Y-17643929D02*
X16597643Y-17658214D01*
X16654786Y-17658214D01*
X16683357Y-17643929D01*
X16697643Y-17615357D01*
X16697643Y-17601072D01*
X16683357Y-17572500D01*
X16654786Y-17558214D01*
X16611928Y-17558214D01*
X16583357Y-17543929D01*
X16569071Y-17515357D01*
X16569071Y-17501072D01*
X16583357Y-17472500D01*
X16611928Y-17458214D01*
X16654786Y-17458214D01*
X16683357Y-17472500D01*
X16797643Y-17772500D02*
X16811928Y-17758214D01*
X16840500Y-17715357D01*
X16854786Y-17686786D01*
X16869071Y-17643929D01*
X16883357Y-17572500D01*
X16883357Y-17515357D01*
X16869071Y-17443929D01*
X16854786Y-17401072D01*
X16840500Y-17372500D01*
X16811928Y-17329643D01*
X16797643Y-17315357D01*
X9975462Y-17968538D02*
X10025500Y-17918500D01*
X9975462Y-17868462D01*
X9925424Y-17918500D01*
X9975462Y-17968538D01*
X10469071Y-18054214D02*
X10297643Y-18054214D01*
X10383357Y-18054214D02*
X10383357Y-17754214D01*
X10354786Y-17797072D01*
X10326214Y-17825643D01*
X10297643Y-17839929D01*
X10597643Y-18025643D02*
X10611928Y-18039929D01*
X10597643Y-18054214D01*
X10583357Y-18039929D01*
X10597643Y-18025643D01*
X10597643Y-18054214D01*
X10797643Y-17754214D02*
X10826214Y-17754214D01*
X10854786Y-17768500D01*
X10869071Y-17782786D01*
X10883357Y-17811357D01*
X10897643Y-17868500D01*
X10897643Y-17939929D01*
X10883357Y-17997072D01*
X10869071Y-18025643D01*
X10854786Y-18039929D01*
X10826214Y-18054214D01*
X10797643Y-18054214D01*
X10769071Y-18039929D01*
X10754786Y-18025643D01*
X10740500Y-17997072D01*
X10726214Y-17939929D01*
X10726214Y-17868500D01*
X10740500Y-17811357D01*
X10754786Y-17782786D01*
X10769071Y-17768500D01*
X10797643Y-17754214D01*
X11083357Y-17754214D02*
X11111928Y-17754214D01*
X11140500Y-17768500D01*
X11154786Y-17782786D01*
X11169071Y-17811357D01*
X11183357Y-17868500D01*
X11183357Y-17939929D01*
X11169071Y-17997072D01*
X11154786Y-18025643D01*
X11140500Y-18039929D01*
X11111928Y-18054214D01*
X11083357Y-18054214D01*
X11054786Y-18039929D01*
X11040500Y-18025643D01*
X11026214Y-17997072D01*
X11011928Y-17939929D01*
X11011928Y-17868500D01*
X11026214Y-17811357D01*
X11040500Y-17782786D01*
X11054786Y-17768500D01*
X11083357Y-17754214D01*
X11311928Y-18054214D02*
X11311928Y-17854214D01*
X11311928Y-17882786D02*
X11326214Y-17868500D01*
X11354786Y-17854214D01*
X11397643Y-17854214D01*
X11426214Y-17868500D01*
X11440500Y-17897072D01*
X11440500Y-18054214D01*
X11440500Y-17897072D02*
X11454786Y-17868500D01*
X11483357Y-17854214D01*
X11526214Y-17854214D01*
X11554786Y-17868500D01*
X11569071Y-17897072D01*
X11569071Y-18054214D01*
X11711928Y-18054214D02*
X11711928Y-17854214D01*
X11711928Y-17882786D02*
X11726214Y-17868500D01*
X11754786Y-17854214D01*
X11797643Y-17854214D01*
X11826214Y-17868500D01*
X11840500Y-17897072D01*
X11840500Y-18054214D01*
X11840500Y-17897072D02*
X11854786Y-17868500D01*
X11883357Y-17854214D01*
X11926214Y-17854214D01*
X11954786Y-17868500D01*
X11969071Y-17897072D01*
X11969071Y-18054214D01*
X12554786Y-17739929D02*
X12297643Y-18125643D01*
X12940500Y-17754214D02*
X12969071Y-17754214D01*
X12997643Y-17768500D01*
X13011928Y-17782786D01*
X13026214Y-17811357D01*
X13040500Y-17868500D01*
X13040500Y-17939929D01*
X13026214Y-17997072D01*
X13011928Y-18025643D01*
X12997643Y-18039929D01*
X12969071Y-18054214D01*
X12940500Y-18054214D01*
X12911928Y-18039929D01*
X12897643Y-18025643D01*
X12883357Y-17997072D01*
X12869071Y-17939929D01*
X12869071Y-17868500D01*
X12883357Y-17811357D01*
X12897643Y-17782786D01*
X12911928Y-17768500D01*
X12940500Y-17754214D01*
X13169071Y-18025643D02*
X13183357Y-18039929D01*
X13169071Y-18054214D01*
X13154786Y-18039929D01*
X13169071Y-18025643D01*
X13169071Y-18054214D01*
X13369071Y-17754214D02*
X13397643Y-17754214D01*
X13426214Y-17768500D01*
X13440500Y-17782786D01*
X13454786Y-17811357D01*
X13469071Y-17868500D01*
X13469071Y-17939929D01*
X13454786Y-17997072D01*
X13440500Y-18025643D01*
X13426214Y-18039929D01*
X13397643Y-18054214D01*
X13369071Y-18054214D01*
X13340500Y-18039929D01*
X13326214Y-18025643D01*
X13311928Y-17997072D01*
X13297643Y-17939929D01*
X13297643Y-17868500D01*
X13311928Y-17811357D01*
X13326214Y-17782786D01*
X13340500Y-17768500D01*
X13369071Y-17754214D01*
X13569071Y-17754214D02*
X13754786Y-17754214D01*
X13654786Y-17868500D01*
X13697643Y-17868500D01*
X13726214Y-17882786D01*
X13740500Y-17897072D01*
X13754786Y-17925643D01*
X13754786Y-17997072D01*
X13740500Y-18025643D01*
X13726214Y-18039929D01*
X13697643Y-18054214D01*
X13611928Y-18054214D01*
X13583357Y-18039929D01*
X13569071Y-18025643D01*
X13897643Y-18054214D02*
X13954786Y-18054214D01*
X13983357Y-18039929D01*
X13997643Y-18025643D01*
X14026214Y-17982786D01*
X14040500Y-17925643D01*
X14040500Y-17811357D01*
X14026214Y-17782786D01*
X14011928Y-17768500D01*
X13983357Y-17754214D01*
X13926214Y-17754214D01*
X13897643Y-17768500D01*
X13883357Y-17782786D01*
X13869071Y-17811357D01*
X13869071Y-17882786D01*
X13883357Y-17911357D01*
X13897643Y-17925643D01*
X13926214Y-17939929D01*
X13983357Y-17939929D01*
X14011928Y-17925643D01*
X14026214Y-17911357D01*
X14040500Y-17882786D01*
X14154786Y-17754214D02*
X14154786Y-17811357D01*
X14269071Y-17754214D02*
X14269071Y-17811357D01*
X14711928Y-18168500D02*
X14697643Y-18154214D01*
X14669071Y-18111357D01*
X14654786Y-18082786D01*
X14640500Y-18039929D01*
X14626214Y-17968500D01*
X14626214Y-17911357D01*
X14640500Y-17839929D01*
X14654786Y-17797072D01*
X14669071Y-17768500D01*
X14697643Y-17725643D01*
X14711928Y-17711357D01*
X14811928Y-17782786D02*
X14826214Y-17768500D01*
X14854786Y-17754214D01*
X14926214Y-17754214D01*
X14954786Y-17768500D01*
X14969071Y-17782786D01*
X14983357Y-17811357D01*
X14983357Y-17839929D01*
X14969071Y-17882786D01*
X14797643Y-18054214D01*
X14983357Y-18054214D01*
X15254786Y-17754214D02*
X15111928Y-17754214D01*
X15097643Y-17897072D01*
X15111928Y-17882786D01*
X15140500Y-17868500D01*
X15211928Y-17868500D01*
X15240500Y-17882786D01*
X15254786Y-17897072D01*
X15269071Y-17925643D01*
X15269071Y-17997072D01*
X15254786Y-18025643D01*
X15240500Y-18039929D01*
X15211928Y-18054214D01*
X15140500Y-18054214D01*
X15111928Y-18039929D01*
X15097643Y-18025643D01*
X15626214Y-18054214D02*
X15626214Y-17754214D01*
X15754786Y-18054214D02*
X15754786Y-17897072D01*
X15740500Y-17868500D01*
X15711928Y-17854214D01*
X15669071Y-17854214D01*
X15640500Y-17868500D01*
X15626214Y-17882786D01*
X15940500Y-18054214D02*
X15911928Y-18039929D01*
X15897643Y-18025643D01*
X15883357Y-17997072D01*
X15883357Y-17911357D01*
X15897643Y-17882786D01*
X15911928Y-17868500D01*
X15940500Y-17854214D01*
X15983357Y-17854214D01*
X16011928Y-17868500D01*
X16026214Y-17882786D01*
X16040500Y-17911357D01*
X16040500Y-17997072D01*
X16026214Y-18025643D01*
X16011928Y-18039929D01*
X15983357Y-18054214D01*
X15940500Y-18054214D01*
X16211928Y-18054214D02*
X16183357Y-18039929D01*
X16169071Y-18011357D01*
X16169071Y-17754214D01*
X16440500Y-18039929D02*
X16411928Y-18054214D01*
X16354786Y-18054214D01*
X16326214Y-18039929D01*
X16311928Y-18011357D01*
X16311928Y-17897072D01*
X16326214Y-17868500D01*
X16354786Y-17854214D01*
X16411928Y-17854214D01*
X16440500Y-17868500D01*
X16454786Y-17897072D01*
X16454786Y-17925643D01*
X16311928Y-17954214D01*
X16569071Y-18039929D02*
X16597643Y-18054214D01*
X16654786Y-18054214D01*
X16683357Y-18039929D01*
X16697643Y-18011357D01*
X16697643Y-17997072D01*
X16683357Y-17968500D01*
X16654786Y-17954214D01*
X16611928Y-17954214D01*
X16583357Y-17939929D01*
X16569071Y-17911357D01*
X16569071Y-17897072D01*
X16583357Y-17868500D01*
X16611928Y-17854214D01*
X16654786Y-17854214D01*
X16683357Y-17868500D01*
X16797643Y-18168500D02*
X16811928Y-18154214D01*
X16840500Y-18111357D01*
X16854786Y-18082786D01*
X16869071Y-18039929D01*
X16883357Y-17968500D01*
X16883357Y-17911357D01*
X16869071Y-17839929D01*
X16854786Y-17797072D01*
X16840500Y-17768500D01*
X16811928Y-17725643D01*
X16797643Y-17711357D01*
X9625500Y-18114500D02*
X10025500Y-18514500D01*
X10025500Y-18114500D02*
X9625500Y-18514500D01*
X10025500Y-18314500D02*
G75*
G03X10025500Y-18314500I-200000J0D01*
G01*
X10440500Y-18250214D02*
X10440500Y-18450214D01*
X10369071Y-18135929D02*
X10297643Y-18350214D01*
X10483357Y-18350214D01*
X10597643Y-18421643D02*
X10611928Y-18435929D01*
X10597643Y-18450214D01*
X10583357Y-18435929D01*
X10597643Y-18421643D01*
X10597643Y-18450214D01*
X10797643Y-18150214D02*
X10826214Y-18150214D01*
X10854786Y-18164500D01*
X10869071Y-18178786D01*
X10883357Y-18207357D01*
X10897643Y-18264500D01*
X10897643Y-18335929D01*
X10883357Y-18393072D01*
X10869071Y-18421643D01*
X10854786Y-18435929D01*
X10826214Y-18450214D01*
X10797643Y-18450214D01*
X10769071Y-18435929D01*
X10754786Y-18421643D01*
X10740500Y-18393072D01*
X10726214Y-18335929D01*
X10726214Y-18264500D01*
X10740500Y-18207357D01*
X10754786Y-18178786D01*
X10769071Y-18164500D01*
X10797643Y-18150214D01*
X11083357Y-18150214D02*
X11111928Y-18150214D01*
X11140500Y-18164500D01*
X11154786Y-18178786D01*
X11169071Y-18207357D01*
X11183357Y-18264500D01*
X11183357Y-18335929D01*
X11169071Y-18393072D01*
X11154786Y-18421643D01*
X11140500Y-18435929D01*
X11111928Y-18450214D01*
X11083357Y-18450214D01*
X11054786Y-18435929D01*
X11040500Y-18421643D01*
X11026214Y-18393072D01*
X11011928Y-18335929D01*
X11011928Y-18264500D01*
X11026214Y-18207357D01*
X11040500Y-18178786D01*
X11054786Y-18164500D01*
X11083357Y-18150214D01*
X11311928Y-18450214D02*
X11311928Y-18250214D01*
X11311928Y-18278786D02*
X11326214Y-18264500D01*
X11354786Y-18250214D01*
X11397643Y-18250214D01*
X11426214Y-18264500D01*
X11440500Y-18293072D01*
X11440500Y-18450214D01*
X11440500Y-18293072D02*
X11454786Y-18264500D01*
X11483357Y-18250214D01*
X11526214Y-18250214D01*
X11554786Y-18264500D01*
X11569071Y-18293072D01*
X11569071Y-18450214D01*
X11711928Y-18450214D02*
X11711928Y-18250214D01*
X11711928Y-18278786D02*
X11726214Y-18264500D01*
X11754786Y-18250214D01*
X11797643Y-18250214D01*
X11826214Y-18264500D01*
X11840500Y-18293072D01*
X11840500Y-18450214D01*
X11840500Y-18293072D02*
X11854786Y-18264500D01*
X11883357Y-18250214D01*
X11926214Y-18250214D01*
X11954786Y-18264500D01*
X11969071Y-18293072D01*
X11969071Y-18450214D01*
X12554786Y-18135929D02*
X12297643Y-18521643D01*
X12940500Y-18150214D02*
X12969071Y-18150214D01*
X12997643Y-18164500D01*
X13011928Y-18178786D01*
X13026214Y-18207357D01*
X13040500Y-18264500D01*
X13040500Y-18335929D01*
X13026214Y-18393072D01*
X13011928Y-18421643D01*
X12997643Y-18435929D01*
X12969071Y-18450214D01*
X12940500Y-18450214D01*
X12911928Y-18435929D01*
X12897643Y-18421643D01*
X12883357Y-18393072D01*
X12869071Y-18335929D01*
X12869071Y-18264500D01*
X12883357Y-18207357D01*
X12897643Y-18178786D01*
X12911928Y-18164500D01*
X12940500Y-18150214D01*
X13169071Y-18421643D02*
X13183357Y-18435929D01*
X13169071Y-18450214D01*
X13154786Y-18435929D01*
X13169071Y-18421643D01*
X13169071Y-18450214D01*
X13469071Y-18450214D02*
X13297643Y-18450214D01*
X13383357Y-18450214D02*
X13383357Y-18150214D01*
X13354786Y-18193072D01*
X13326214Y-18221643D01*
X13297643Y-18235929D01*
X13740500Y-18150214D02*
X13597643Y-18150214D01*
X13583357Y-18293072D01*
X13597643Y-18278786D01*
X13626214Y-18264500D01*
X13697643Y-18264500D01*
X13726214Y-18278786D01*
X13740500Y-18293072D01*
X13754786Y-18321643D01*
X13754786Y-18393072D01*
X13740500Y-18421643D01*
X13726214Y-18435929D01*
X13697643Y-18450214D01*
X13626214Y-18450214D01*
X13597643Y-18435929D01*
X13583357Y-18421643D01*
X13854786Y-18150214D02*
X14054786Y-18150214D01*
X13926214Y-18450214D01*
X14154786Y-18150214D02*
X14154786Y-18207357D01*
X14269071Y-18150214D02*
X14269071Y-18207357D01*
X14711928Y-18564500D02*
X14697643Y-18550214D01*
X14669071Y-18507357D01*
X14654786Y-18478786D01*
X14640500Y-18435929D01*
X14626214Y-18364500D01*
X14626214Y-18307357D01*
X14640500Y-18235929D01*
X14654786Y-18193072D01*
X14669071Y-18164500D01*
X14697643Y-18121643D01*
X14711928Y-18107357D01*
X14954786Y-18250214D02*
X14954786Y-18450214D01*
X14883357Y-18135929D02*
X14811928Y-18350214D01*
X14997643Y-18350214D01*
X15340500Y-18450214D02*
X15340500Y-18150214D01*
X15469071Y-18450214D02*
X15469071Y-18293072D01*
X15454786Y-18264500D01*
X15426214Y-18250214D01*
X15383357Y-18250214D01*
X15354786Y-18264500D01*
X15340500Y-18278786D01*
X15654786Y-18450214D02*
X15626214Y-18435929D01*
X15611928Y-18421643D01*
X15597643Y-18393072D01*
X15597643Y-18307357D01*
X15611928Y-18278786D01*
X15626214Y-18264500D01*
X15654786Y-18250214D01*
X15697643Y-18250214D01*
X15726214Y-18264500D01*
X15740500Y-18278786D01*
X15754786Y-18307357D01*
X15754786Y-18393072D01*
X15740500Y-18421643D01*
X15726214Y-18435929D01*
X15697643Y-18450214D01*
X15654786Y-18450214D01*
X15926214Y-18450214D02*
X15897643Y-18435929D01*
X15883357Y-18407357D01*
X15883357Y-18150214D01*
X16154786Y-18435929D02*
X16126214Y-18450214D01*
X16069071Y-18450214D01*
X16040500Y-18435929D01*
X16026214Y-18407357D01*
X16026214Y-18293072D01*
X16040500Y-18264500D01*
X16069071Y-18250214D01*
X16126214Y-18250214D01*
X16154786Y-18264500D01*
X16169071Y-18293072D01*
X16169071Y-18321643D01*
X16026214Y-18350214D01*
X16283357Y-18435929D02*
X16311928Y-18450214D01*
X16369071Y-18450214D01*
X16397643Y-18435929D01*
X16411928Y-18407357D01*
X16411928Y-18393072D01*
X16397643Y-18364500D01*
X16369071Y-18350214D01*
X16326214Y-18350214D01*
X16297643Y-18335929D01*
X16283357Y-18307357D01*
X16283357Y-18293072D01*
X16297643Y-18264500D01*
X16326214Y-18250214D01*
X16369071Y-18250214D01*
X16397643Y-18264500D01*
X16511928Y-18564500D02*
X16526214Y-18550214D01*
X16554786Y-18507357D01*
X16569071Y-18478786D01*
X16583357Y-18435929D01*
X16597643Y-18364500D01*
X16597643Y-18307357D01*
X16583357Y-18235929D01*
X16569071Y-18193072D01*
X16554786Y-18164500D01*
X16526214Y-18121643D01*
X16511928Y-18107357D01*
M02*
