%TF.GenerationSoftware,KiCad,Pcbnew,5.0.2+dfsg1-1*%
%TF.CreationDate,2021-07-07T20:35:57+03:00*%
%TF.ProjectId,audio-switch,61756469-6f2d-4737-9769-7463682e6b69,V1.0*%
%TF.SameCoordinates,Original*%
%TF.FileFunction,Plated,1,2,PTH,Drill*%
%TF.FilePolarity,Positive*%
%FSLAX46Y46*%
G04 Gerber Fmt 4.6, Leading zero omitted, Abs format (unit mm)*
G04 Created by KiCad (PCBNEW 5.0.2+dfsg1-1) date Wed 07 Jul 2021 08:35:57 PM EEST*
%MOMM*%
%LPD*%
G01*
G04 APERTURE LIST*
%TA.AperFunction,ComponentDrill*%
%ADD10C,0.600000*%
%TD*%
%TA.AperFunction,ComponentDrill*%
%ADD11C,0.800000*%
%TD*%
%TA.AperFunction,ComponentDrill*%
%ADD12C,0.900000*%
%TD*%
%TA.AperFunction,ComponentDrill*%
%ADD13C,1.000000*%
%TD*%
%TA.AperFunction,ComponentDrill*%
%ADD14C,1.000760*%
%TD*%
%TA.AperFunction,ComponentDrill*%
%ADD15C,4.000000*%
%TD*%
G04 APERTURE END LIST*
D10*
%TO.C,C8*%
X130627905Y-129032000D03*
X132127905Y-129032000D03*
%TO.C,C3*%
X104584500Y-129032000D03*
X106084500Y-129032000D03*
%TO.C,C10*%
X141045267Y-129032000D03*
X142545267Y-129032000D03*
%TO.C,C6*%
X120210543Y-129032000D03*
X121710543Y-129032000D03*
%TO.C,C12*%
X151462629Y-129032000D03*
X152962629Y-129032000D03*
%TO.C,C7*%
X125419224Y-129032000D03*
X126919224Y-129032000D03*
%TO.C,C11*%
X146253948Y-129032000D03*
X147753948Y-129032000D03*
%TO.C,C13*%
X156671310Y-129032000D03*
X158171310Y-129032000D03*
%TO.C,C1*%
X110025208Y-68580000D03*
X111525208Y-68580000D03*
%TO.C,REF\002A\002A*%
X164640000Y-148590000D03*
X165518680Y-146468680D03*
X165518680Y-150711320D03*
X167640000Y-145590000D03*
X167640000Y-151590000D03*
X169761320Y-146468680D03*
X169761320Y-150711320D03*
X170640000Y-148590000D03*
%TO.C,C4*%
X109793181Y-129032000D03*
X111293181Y-129032000D03*
%TO.C,REF\002A\002A*%
X164640000Y-49530000D03*
X165518680Y-47408680D03*
X165518680Y-51651320D03*
X167640000Y-46530000D03*
X167640000Y-52530000D03*
X169761320Y-47408680D03*
X169761320Y-51651320D03*
X170640000Y-49530000D03*
X102410000Y-148590000D03*
X103288680Y-146468680D03*
X103288680Y-150711320D03*
X105410000Y-145590000D03*
X105410000Y-151590000D03*
X107531320Y-146468680D03*
X107531320Y-150711320D03*
X108410000Y-148590000D03*
%TO.C,C5*%
X115001862Y-129032000D03*
X116501862Y-129032000D03*
%TO.C,C9*%
X135836586Y-129032000D03*
X137336586Y-129032000D03*
%TO.C,REF\002A\002A*%
X102410000Y-49530000D03*
X103288680Y-47408680D03*
X103288680Y-51651320D03*
X105410000Y-46530000D03*
X105410000Y-52530000D03*
X107531320Y-47408680D03*
X107531320Y-51651320D03*
X108410000Y-49530000D03*
%TO.C,C14*%
X161880000Y-129032000D03*
X163380000Y-129032000D03*
%TO.C,C16*%
X115340000Y-68580000D03*
X116840000Y-68580000D03*
%TO.C,C15*%
X120420000Y-68580000D03*
X121920000Y-68580000D03*
D11*
%TO.C,R19*%
X150466776Y-74647983D03*
X150466776Y-82267983D03*
%TO.C,R1*%
X128397000Y-65595500D03*
X136017000Y-65595500D03*
%TO.C,R2*%
X138874500Y-65595500D03*
X146494500Y-65595500D03*
%TO.C,R4*%
X121818400Y-85569983D03*
X121818400Y-93189983D03*
%TO.C,R14*%
X139725400Y-85569983D03*
X139725400Y-93189983D03*
%TO.C,U2*%
X122301000Y-105727500D03*
X122301000Y-108267500D03*
X122301000Y-110807500D03*
X122301000Y-113347500D03*
X122301000Y-115887500D03*
X122301000Y-118427500D03*
X122301000Y-120967500D03*
X129921000Y-105727500D03*
X129921000Y-108267500D03*
X129921000Y-110807500D03*
X129921000Y-113347500D03*
X129921000Y-115887500D03*
X129921000Y-118427500D03*
X129921000Y-120967500D03*
%TO.C,U1*%
X108966000Y-98552000D03*
X108966000Y-101092000D03*
X108966000Y-103632000D03*
X108966000Y-106172000D03*
X108966000Y-108712000D03*
X108966000Y-111252000D03*
X108966000Y-113792000D03*
X108966000Y-116332000D03*
X108966000Y-118872000D03*
X108966000Y-121412000D03*
X116586000Y-98552000D03*
X116586000Y-101092000D03*
X116586000Y-103632000D03*
X116586000Y-106172000D03*
X116586000Y-108712000D03*
X116586000Y-111252000D03*
X116586000Y-113792000D03*
X116586000Y-116332000D03*
X116586000Y-118872000D03*
X116586000Y-121412000D03*
%TO.C,R9*%
X132545666Y-74647983D03*
X132545666Y-82267983D03*
%TO.C,R22*%
X154051000Y-85569983D03*
X154051000Y-93189983D03*
%TO.C,R16*%
X143306800Y-85569983D03*
X143306800Y-93189983D03*
%TO.C,R12*%
X136144000Y-85569983D03*
X136144000Y-93189983D03*
%TO.C,C2*%
X111800000Y-95250000D03*
X114300000Y-95250000D03*
%TO.C,R8*%
X128981200Y-85569983D03*
X128981200Y-93189983D03*
%TO.C,R20*%
X150469600Y-85569983D03*
X150469600Y-93189983D03*
%TO.C,R18*%
X146888200Y-85569983D03*
X146888200Y-93189983D03*
%TO.C,R13*%
X139714110Y-74647983D03*
X139714110Y-82267983D03*
%TO.C,R11*%
X136129888Y-74647983D03*
X136129888Y-82267983D03*
%TO.C,R24*%
X157556200Y-85623400D03*
X157556200Y-93243400D03*
%TO.C,R7*%
X128961444Y-74647983D03*
X128961444Y-82267983D03*
%TO.C,R25*%
X161112200Y-74701400D03*
X161112200Y-82321400D03*
%TO.C,R5*%
X125377222Y-74647983D03*
X125377222Y-82267983D03*
%TO.C,U3*%
X136969500Y-105727500D03*
X136969500Y-108267500D03*
X136969500Y-110807500D03*
X136969500Y-113347500D03*
X136969500Y-115887500D03*
X136969500Y-118427500D03*
X136969500Y-120967500D03*
X144589500Y-105727500D03*
X144589500Y-108267500D03*
X144589500Y-110807500D03*
X144589500Y-113347500D03*
X144589500Y-115887500D03*
X144589500Y-118427500D03*
X144589500Y-120967500D03*
%TO.C,U4*%
X151638000Y-105727500D03*
X151638000Y-108267500D03*
X151638000Y-110807500D03*
X151638000Y-113347500D03*
X151638000Y-115887500D03*
X151638000Y-118427500D03*
X151638000Y-120967500D03*
X159258000Y-105727500D03*
X159258000Y-108267500D03*
X159258000Y-110807500D03*
X159258000Y-113347500D03*
X159258000Y-115887500D03*
X159258000Y-118427500D03*
X159258000Y-120967500D03*
%TO.C,R3*%
X121793000Y-74647983D03*
X121793000Y-82267983D03*
%TO.C,R17*%
X146882554Y-74647983D03*
X146882554Y-82267983D03*
%TO.C,R15*%
X143298332Y-74647983D03*
X143298332Y-82267983D03*
%TO.C,R21*%
X154051000Y-74647983D03*
X154051000Y-82267983D03*
%TO.C,R6*%
X125399800Y-85569983D03*
X125399800Y-93189983D03*
%TO.C,R10*%
X132562600Y-85569983D03*
X132562600Y-93189983D03*
%TO.C,R26*%
X161112200Y-85623400D03*
X161112200Y-93243400D03*
%TO.C,R23*%
X157556200Y-74647983D03*
X157556200Y-82267983D03*
D12*
%TO.C,D4*%
X142150592Y-60195460D03*
X144690592Y-60195460D03*
%TO.C,D6*%
X152293320Y-60195460D03*
X154833320Y-60195460D03*
%TO.C,D5*%
X147221956Y-60195460D03*
X149761956Y-60195460D03*
%TO.C,D2*%
X132007864Y-60195460D03*
X134547864Y-60195460D03*
%TO.C,D1*%
X126936500Y-60195460D03*
X129476500Y-60195460D03*
%TO.C,D3*%
X137079228Y-60195460D03*
X139619228Y-60195460D03*
D13*
%TO.C,D9*%
X138606119Y-97279665D03*
X143686119Y-97279665D03*
%TO.C,J2*%
X109220000Y-75819000D03*
X109220000Y-78359000D03*
X109220000Y-80899000D03*
X109220000Y-83439000D03*
X109220000Y-85979000D03*
X111760000Y-75819000D03*
X111760000Y-78359000D03*
X111760000Y-80899000D03*
X111760000Y-83439000D03*
X111760000Y-85979000D03*
%TO.C,D8*%
X123712160Y-101092000D03*
X128792160Y-101092000D03*
%TO.C,D12*%
X152501600Y-101092000D03*
X157581600Y-101092000D03*
%TO.C,D7*%
X123712160Y-97279665D03*
X128792160Y-97279665D03*
%TO.C,D11*%
X152501600Y-97279665D03*
X157581600Y-97279665D03*
%TO.C,D10*%
X138606119Y-101092000D03*
X143686119Y-101092000D03*
D14*
%TO.C,J9*%
X116112894Y-60339796D03*
X119287894Y-60339796D03*
X122462894Y-60339796D03*
%TO.C,J5*%
X125331000Y-135509000D03*
X128506000Y-135509000D03*
X131681000Y-135509000D03*
%TO.C,J8*%
X156165000Y-135509000D03*
X159340000Y-135509000D03*
X162515000Y-135509000D03*
%TO.C,SW1*%
X158008320Y-58750200D03*
X158008320Y-62560200D03*
%TO.C,J3*%
X104775000Y-135509000D03*
X107950000Y-135509000D03*
X111125000Y-135509000D03*
%TO.C,J7*%
X145887000Y-135509000D03*
X149062000Y-135509000D03*
X152237000Y-135509000D03*
%TO.C,J1*%
X110363000Y-59309000D03*
X110363000Y-63119000D03*
%TO.C,J6*%
X135609000Y-135509000D03*
X138784000Y-135509000D03*
X141959000Y-135509000D03*
%TO.C,J4*%
X115053000Y-135509000D03*
X118228000Y-135509000D03*
X121403000Y-135509000D03*
D15*
%TO.C,REF\002A\002A*%
X167640000Y-148590000D03*
X167640000Y-49530000D03*
X105410000Y-148590000D03*
X105410000Y-49530000D03*
M02*
